<svg id="undraw_gifts_btw0" xmlns="http://www.w3.org/2000/svg" xmlns:xlink="http://www.w3.org/1999/xlink" width="577.606" height="377.911" viewBox="0 0 577.606 377.911">
  <defs>
    <linearGradient id="linear-gradient" x1="0.5" y1="1" x2="0.5" gradientUnits="objectBoundingBox">
      <stop offset="0" stop-color="gray" stop-opacity="0.251"/>
      <stop offset="0.54" stop-color="gray" stop-opacity="0.122"/>
      <stop offset="1" stop-color="gray" stop-opacity="0.102"/>
    </linearGradient>
    <linearGradient id="linear-gradient-2" x1="-2.497" y1="1" x2="-2.497" y2="0" xlink:href="#linear-gradient"/>
  </defs>
  <ellipse id="Ellipse_20" data-name="Ellipse 20" cx="288.803" cy="45.424" rx="288.803" ry="45.424" transform="translate(0 287.063)" fill="#00a779" opacity="0.1"/>
  <path id="Path_70" data-name="Path 70" d="M872.257,472.98v31.487l-8.326,16.8h0l-.263.532-22.036-1.456-8.471-.563-19.661-1.3V480.816l19.661.552,8.791.248,22.242.63Z" transform="translate(-393.587 -228.837)" fill="#f86d70"/>
  <path id="Path_71" data-name="Path 71" d="M919.526,476.58v29.629l-2.039,4.1h0l-2.08,4.207h0l-4.207,8.486.47-31.487.093-6.354,4-4.424h0l1.745-1.931Z" transform="translate(-440.857 -230.579)" opacity="0.1"/>
  <path id="Path_72" data-name="Path 72" d="M871.756,454.666v11l-1.125,1.8-2.023,3.216-1.786,2.849-3.954,6.3-.093-.005-52.635-2.71V466.269l.134-.145,6.282-6.8,2.276-2.462,4.114-4.449Z" transform="translate(-391.962 -218.885)" fill="#f86d70"/>
  <path id="Path_73" data-name="Path 73" d="M862.868,481.834v10.85l-52.728-2.715V479.125l.134-.145Z" transform="translate(-391.962 -231.74)" opacity="0.1"/>
  <path id="Path_74" data-name="Path 74" d="M921.179,456.78v11l-8.889,14.164v-10.85Z" transform="translate(-441.384 -220.999)" opacity="0.15"/>
  <path id="Path_75" data-name="Path 75" d="M874.632,463.9l-.005,7.387-.005,3.567-.015,27.936h0L872.526,507l.31-29.293.046-4.486h0l.072-6.617-50.384-3.107,2.276-2.462Z" transform="translate(-397.976 -223.055)" fill="#464353"/>
  <path id="Path_76" data-name="Path 76" d="M863.942,467.29l-3.531,7.665-.031,3.907-.32,38.724-8.471-.563v-42.58l4.517-7.154Z" transform="translate(-412.016 -226.084)" fill="#464353"/>
  <path id="Path_77" data-name="Path 77" d="M885.332,539.735a11.159,11.159,0,0,1-6.318.222,2.528,2.528,0,0,1-1.1-.516,2.88,2.88,0,0,1-.687-1.358,10.678,10.678,0,0,1-.6-3.247,3.613,3.613,0,0,1,1.352-2.9,3.166,3.166,0,0,0,.516-.387,2.179,2.179,0,0,0,.4-.805c.619-1.843,1.812-3.784,3.732-4.083,1.77-.268,3.381.965,4.749,2.127l2.994,2.55a4.723,4.723,0,0,1,8.811-.119,16.708,16.708,0,0,1,6.659-4.573,2.065,2.065,0,0,1,1.75-.067,1.951,1.951,0,0,1,.7.934,14.376,14.376,0,0,1,1.3,5.678,1,1,0,0,1,1.156.4,2.626,2.626,0,0,1,.382,1.249,17.239,17.239,0,0,1,.119,2.065,3.1,3.1,0,0,1-.516,2.065,3.384,3.384,0,0,1-2.581.805,1.042,1.042,0,0,1-.268,1.549,3.014,3.014,0,0,1-1.75.341c-2.328,0-4.806-.088-6.747-1.378-.764-.516-1.4-1.192-2.173-1.7-1.879-1.244-4.243-1.3-6.416-1.2C888.76,537.479,887.2,539.105,885.332,539.735Z" transform="translate(-445.031 -298.013)" fill="#464353"/>
  <path id="Path_78" data-name="Path 78" d="M871.909,551.225s-19.434,2.71-22.149,14.453l4.073-.6,2.86,5.12s3.015-11.449,11.9-14.164,12.053-3.159,12.053-3.159,6.194,1.5,11.748,19.434l3.164-4.372,5.575,1.208s-4.068-14.014-15.067-17.927Z" transform="translate(-432.036 -310.014)" fill="#464353"/>
  <path id="Path_79" data-name="Path 79" d="M800.318,496.84v42.533l-11.242,22.681v.005l-.356.718-29.768-1.967-11.444-.759L720.95,558.3V507.422l26.557.748,11.877.336,30.047.847Z" transform="translate(-348.81 -240.381)" fill="#00a779"/>
  <path id="Path_80" data-name="Path 80" d="M864.172,501.7v40.025l-2.746,5.539v.005l-2.818,5.678h0l-5.678,11.459.635-42.533.129-8.579,5.4-5.972v-.005l2.354-2.6Z" transform="translate(-412.664 -242.732)" opacity="0.1"/>
  <path id="Path_81" data-name="Path 81" d="M799.654,472.091v14.861l-1.528,2.431-2.726,4.341-2.416,3.851-5.337,8.507-.129-.01-71.1-3.655V487.762l.176-.191,8.491-9.188,3.071-3.329,5.559-6.014Z" transform="translate(-346.618 -226.931)" fill="#00a779"/>
  <path id="Path_82" data-name="Path 82" d="M787.648,508.8V523.45l-71.228-3.665V505.131l.176-.191Z" transform="translate(-346.618 -244.3)" opacity="0.1"/>
  <path id="Path_83" data-name="Path 83" d="M866.416,474.95v14.861L854.41,508.94V494.286Z" transform="translate(-413.38 -229.79)" opacity="0.15"/>
  <path id="Path_84" data-name="Path 84" d="M803.534,484.567l-.01,9.983v4.811L803.5,537.1v.005l-2.818,5.678.423-39.57.062-6.055v-.005l.1-8.94-68.058-4.191,3.071-3.329Z" transform="translate(-354.742 -232.567)" fill="#464353"/>
  <path id="Path_85" data-name="Path 85" d="M789.088,489.15,784.319,499.5l-.041,5.28-.434,52.3-11.444-.759V498.818l6.106-9.668Z" transform="translate(-373.702 -236.66)" fill="#464353"/>
  <path id="Path_86" data-name="Path 86" d="M803.779,557.544a15.1,15.1,0,0,1-8.532.3,3.393,3.393,0,0,1-1.492-.692,3.877,3.877,0,0,1-.929-1.832,14.452,14.452,0,0,1-.815-4.393,4.882,4.882,0,0,1,1.827-3.913,4.851,4.851,0,0,0,.692-.516,2.869,2.869,0,0,0,.516-1.089c.831-2.488,2.447-5.115,5.043-5.513,2.39-.366,4.568,1.3,6.411,2.87l4.042,3.443a6.385,6.385,0,0,1,11.9-.16,22.6,22.6,0,0,1,9-6.194,2.773,2.773,0,0,1,2.369-.093,2.689,2.689,0,0,1,.939,1.259,19.482,19.482,0,0,1,1.755,7.67,1.342,1.342,0,0,1,1.548.516,3.556,3.556,0,0,1,.516,1.693,23.88,23.88,0,0,1,.165,2.782A4.171,4.171,0,0,1,838,556.47c-.826.96-2.256,1.063-3.52,1.094a1.411,1.411,0,0,1-.366,2.091,4.057,4.057,0,0,1-2.364.459c-3.149-.031-6.493-.119-9.11-1.869-1.032-.687-1.9-1.605-2.937-2.292-2.54-1.683-5.73-1.76-8.672-1.621C808.409,554.493,806.3,556.7,803.779,557.544Z" transform="translate(-404.095 -304.357)" fill="#464353"/>
  <path id="Path_87" data-name="Path 87" d="M785.628,573.08s-26.253,3.665-29.938,19.537l5.5-.816,3.866,6.922s4.073-15.485,16.079-19.13,16.28-4.274,16.28-4.274,8.341,2.034,15.873,26.253l4.274-5.905,7.552,1.631s-5.5-18.928-20.353-24.219Z" transform="translate(-386.523 -320.59)" fill="#464353"/>
  <path id="Path_88" data-name="Path 88" d="M911.21,537.77V564.1l-6.958,14.04h0l-.222.444-18.423-1.218-7.082-.47-16.435-1.084V544.32l16.435.459,7.35.206,18.6.527Z" transform="translate(-417.096 -260.184)" fill="#464353"/>
  <path id="Path_89" data-name="Path 89" d="M950.728,540.77v24.777l-1.7,3.427h0l-1.745,3.515v.005l-3.515,7.092.392-26.325.083-5.311,3.34-3.7h0l1.461-1.61Z" transform="translate(-456.615 -261.635)" opacity="0.1"/>
  <path id="Path_90" data-name="Path 90" d="M910.795,522.449v9.2l-.945,1.5-1.688,2.689-1.492,2.385-3.3,5.26h-.083l-44-2.266v-9.069l.108-.119,5.255-5.688,1.9-2.054,3.438-3.727Z" transform="translate(-415.737 -251.857)" fill="#464353"/>
  <path id="Path_91" data-name="Path 91" d="M903.367,545.165v9.069l-44.087-2.266V542.9l.108-.119Z" transform="translate(-415.737 -262.608)" opacity="0.1"/>
  <path id="Path_92" data-name="Path 92" d="M952.118,524.22v9.2l-7.428,11.836v-9.069Z" transform="translate(-457.06 -253.628)" opacity="0.15"/>
  <path id="Path_93" data-name="Path 93" d="M913.194,530.175v6.179l-.005,2.978-.01,23.357h0l-1.745,3.515.263-24.488.036-3.753h0l.062-5.533-42.126-2.6,1.9-2.054Z" transform="translate(-420.763 -255.35)" fill="#00a779"/>
  <path id="Path_94" data-name="Path 94" d="M904.259,533.01l-2.953,6.411-.026,3.262-.268,32.375-7.082-.47v-35.6l3.778-5.982Z" transform="translate(-432.501 -257.881)" fill="#00a779"/>
  <path id="Path_95" data-name="Path 95" d="M928.773,607.352a9.384,9.384,0,0,1-5.281.186,2.151,2.151,0,0,1-.924-.434,2.431,2.431,0,0,1-.573-1.13,8.957,8.957,0,0,1-.516-2.72,3.019,3.019,0,0,1,1.13-2.421,2.581,2.581,0,0,0,.428-.325,1.777,1.777,0,0,0,.33-.671c.516-1.549,1.518-3.164,3.123-3.412,1.481-.227,2.829.805,3.969,1.776l2.5,2.132a3.949,3.949,0,0,1,7.366-.093,14.051,14.051,0,0,1,5.57-3.82,1.713,1.713,0,0,1,1.461-.057,1.641,1.641,0,0,1,.583.779,11.974,11.974,0,0,1,1.084,4.749.826.826,0,0,1,.965.33,2.229,2.229,0,0,1,.325,1.032,14.849,14.849,0,0,1,.1,1.724,2.581,2.581,0,0,1-.454,1.724,2.841,2.841,0,0,1-2.178.676.878.878,0,0,1-.222,1.3,2.53,2.53,0,0,1-1.466.284c-1.946,0-4.021-.072-5.642-1.156-.64-.423-1.177-.991-1.817-1.419a8.84,8.84,0,0,0-5.363-1C931.638,605.462,930.337,606.825,928.773,607.352Z" transform="translate(-466.735 -331.789)" fill="#00a779"/>
  <path id="Path_96" data-name="Path 96" d="M917.565,616.94s-16.249,2.266-18.515,12.094l3.4-.516,2.39,4.284s2.519-9.575,9.952-11.841a81.364,81.364,0,0,1,10.076-2.643s5.162,1.26,9.807,16.244l2.648-3.649,4.646,1.032s-3.4-11.712-12.595-14.969Z" transform="translate(-455.883 -341.811)" fill="#00a779"/>
  <path id="Path_97" data-name="Path 97" d="M731.04,188.214c-.578-3.458-11.3-10.943-11.3-10.943s-4.733-2.581-7.227-5.57c-1.605-1.9-2.106-1.879-2.256-1.621a.774.774,0,0,0-.351-.119c-.1-.072-.2-.139-.289-.217h0a.692.692,0,0,0-.4-.707,3.963,3.963,0,0,1-.366-.258,11.822,11.822,0,0,1-1.2-5.069c-.119-2.168-2.581-1.621-3.36-1.383-.568-1.079-1.125-2.209-1.647-3.335a5.932,5.932,0,0,0,.537-1.161c1.5-3.3,1.167-7.087,1.817-10.577.47-2.529,1.44-5.162,1.249-7.624v-.181a.088.088,0,0,1,0,.036,6.675,6.675,0,0,0-.413-1.8c-.428-1.11-1.182-2.065-1.549-3.216-.542-1.662-.2-3.5-.645-5.193a7.717,7.717,0,0,0-4.357-4.739,21.3,21.3,0,0,0-6.447-1.549c-5.513-.7-11.356-1.12-16.389,1.234a2.87,2.87,0,0,1-1.549.418,4.583,4.583,0,0,1-1.394-.656,4.163,4.163,0,0,0-4.253.666,12.716,12.716,0,0,0-2.829,3.489,10.9,10.9,0,0,1-2.917,3.412c-1.471,1-3.412,1.332-4.558,2.679a4.33,4.33,0,0,0-.95,2.23.09.09,0,0,0,0-.036v.728a5.566,5.566,0,0,0,0,.656,14.259,14.259,0,0,0,.976,3.665,5.112,5.112,0,0,0,1.332,2.3c1.765,1.466,4.553.083,6.71.9a5.114,5.114,0,0,1,.516.243l-.077.248A17.55,17.55,0,0,0,684.444,167.6a9.512,9.512,0,0,0,1.084-.041c.052.191.108.382.155.573a19.393,19.393,0,0,1,.516,6.566l-.108-.955a4.892,4.892,0,0,0-.733-.289,6.5,6.5,0,0,0-2.194-.336c-2.4-.036-6.019.95-9.875,5.709,0,0-4.924,2.787-6.375,3.458a.718.718,0,0,0-.268.31h0s-6.514,10.133-7.19,13.952l-.093.516-11.046-.516a20.394,20.394,0,0,0-1.858-7.954,2.845,2.845,0,0,0-1-1.332,2.951,2.951,0,0,0-2.514.1,24.038,24.038,0,0,0-9.565,6.519,6.8,6.8,0,0,0-12.652.17l-4.3-3.613c-1.956-1.657-4.269-3.422-6.814-3.035-2.756.423-4.475,3.2-5.363,5.823a3.008,3.008,0,0,1-.568,1.151,2.023,2.023,0,0,1-.16.134l-3.386-.155-5.905,6.349-3.267,3.515-9.023,9.7-.191.2v9.694a17.64,17.64,0,0,0-.65,2.152l.65-.1v3.747l2.488.129v44.686l28.23,1.853,12.166.785,21.5,1.409c0,2.029.847,4.878,2.648,6a4.953,4.953,0,0,1,1.187,1.068c-.093.181-.186.367-.274.552-.862,1.781-1.626,3.768-1.492,5a6.854,6.854,0,0,1-1.032,4.465s-6.5,20.518-6.359,26.413-2.318,18.856-2.318,18.856-2.684,8.352-1.089,10.726,3.407,12.745,3.407,12.745a10.63,10.63,0,0,1,1.156,4.393,21.908,21.908,0,0,0,1.161,5.678l4.057,14.9s-.434,3.959,1.089,6.767,1.373,1.941.65,6.839.867,9.431,3.479,10.871a1.616,1.616,0,0,1,.749,2.24h-.026c-.666-.263-1.218,1.136-1.549,2.266-.2.206-.336.325-.336.325l.227.057c-.144.542-.227.95-.227.95s-6.808,5.761-7.227,7.846-5.219,3.169-5.219,3.169-7.226,2.013-9.131,3.025a3.474,3.474,0,0,0-2,2.792,7.846,7.846,0,0,0,.258,2.818c.728,2.953,10.871,3.242,15.723,2.452s14.928-3.675,14.928-3.675,10.576-1.032,13.694-2.3.65-4.6.65-4.6V430.8c.078-1.2.294-5.57-.454-6.741-.568-.888-.547-3.1-.47-4.506,2.116-3.871-2.431-15.485-2.431-15.485s.872-11.356.289-13.028-3.04-15.764-3.04-15.764-1.523-6.411-.945-7.49-.361-4.176-.361-4.176-2.462-3.453-2.245-4.532a6.677,6.677,0,0,0-.723-3.025s7.392-11.232,6.736-13.317.289-5.471.289-5.471l2.065-3.495c1.373-2.333,3.035-5.136,3.613-6.008a75.493,75.493,0,0,0,3.381-8.558c.4-1.156.676-1.951.676-1.951s1.161,21.163,2.173,23.326,2.54,19.217,2.54,19.217a11.977,11.977,0,0,1,.723,4.754c-.144,2.663,2.318,14.252,2.318,14.252s1.089,8.207.361,10.365-.145,18.066-.145,18.066-3.985,3.1-5,5.466.145,8.858.145,8.858l.465.222a13.507,13.507,0,0,0-.826,2.8c-.145,1.368-2.323,7.562-2.1,8.424s-.945,3.526-1.089,4.893-1.956,3.386-2.1,4.129a17.473,17.473,0,0,1-.8,1.9,18.741,18.741,0,0,0-.939,2.927c-.723,3.02,7.9,3.526,7.9,3.526,12.75,2.374,15.072-7.34,15.072-7.34s1.59-8.641,2.173-9.291a1.074,1.074,0,0,0,.1-.826h0a11.26,11.26,0,0,0-1.838-4.073,4.835,4.835,0,0,1-.367-2.818,5.833,5.833,0,0,0,1.089-.2c5.162-1.512,3.045-10.226,3.045-10.226s3.474-5.755,3.474-7.99a89.7,89.7,0,0,1,1.234-9.069c4.418-8.063,2.679-27.641,3.407-29.226s-1.523-7.485-3.334-10.148-1.084-9.864,0-11.95-1.084-9.291-1.084-9.291,2.1-13.968,2.029-16.125,1.807-8.569,1.807-8.569,1.884-3.309,1.451-4.315,1.451-3.613.945-4.754.434-4.677,1.373-6.767a40.478,40.478,0,0,0,1.549-6.633l.155-.862c2.111,1.358,4.031,2.369,4.749,2.1,1.29-.516-.764-7.227-2.178-11.418.243-.181.341-.32.243-.387-.867-.573.1-3.169.1-3.169,5.121-3.1,3.381-5.373,1.74-6.71s-.578-5.162-1.063-6.71.578-8.543,1.451-13.627a9.9,9.9,0,0,0-.031-3.34c.934-1.435,1.894-2.942,2.736-4.341,2.9-4.8,9.08-27.641,9.08-27.641l-.041-.119c.6-1.213,1.032-2.2,1.3-2.854C735.1,206.641,731.618,191.667,731.04,188.214Zm-45.026-13.152.134-.067v.114ZM657.908,420.1a2.287,2.287,0,0,1-.919-.181Z" transform="translate(-302.053 -102.564)" fill="url(#linear-gradient)"/>
  <path id="Path_98" data-name="Path 98" d="M616.868,367.034c4.243,1.61,14.123,1.791,18.51,1.786h2.158l2.813-5.724-2.813-4.775s-2.581-.707-6.008-1.327c-5.059-.914-11.981-1.626-15.279.423C610.715,360.835,611.334,364.933,616.868,367.034Z" transform="translate(-317.194 -215.608)" fill="#fec2be"/>
  <path id="Path_99" data-name="Path 99" d="M653.311,369.666h2.158l2.813-5.724-2.813-4.775s-2.581-.707-6.008-1.327C652.242,359.874,658.932,364.308,653.311,369.666Z" transform="translate(-335.127 -216.453)" opacity="0.1"/>
  <path id="Path_100" data-name="Path 100" d="M699.43,243.18l-1.244-1.43s-6.4,10.117-7.061,13.937-1.549,8.212-1.549,8.212-1.595,4.955-2.627,7.154a24.954,24.954,0,0,0-2.1,5.25c-.093.955.382,3.056-1.626,4.388s-2.483,4.966-2.483,4.966-7.227,7.061-11.072,7.252-14.794,2.1-14.412,4.011-4.584,3.056-6.587,3.531,12.9,6.194,4.2,13.555c0,0,5.533,1.146,6.106,2.483s6.4-.764,6.4-.764,1.244-2.958,5.539-3.149,6.488-2.1,6.488-2.39,4.295-2.669,6.685-3.34,5.533-.955,5.631-1.621,14.314-62.045,14.314-62.045Z" transform="translate(-334.656 -160.286)" fill="#28417a"/>
  <path id="Path_101" data-name="Path 101" d="M699.43,243.18l-1.244-1.43s-6.4,10.117-7.061,13.937-1.549,8.212-1.549,8.212-1.595,4.955-2.627,7.154a24.954,24.954,0,0,0-2.1,5.25c-.093.955.382,3.056-1.626,4.388s-2.483,4.966-2.483,4.966-7.227,7.061-11.072,7.252-14.794,2.1-14.412,4.011-4.584,3.056-6.587,3.531,12.9,6.194,4.2,13.555c0,0,5.533,1.146,6.106,2.483s6.4-.764,6.4-.764,1.244-2.958,5.539-3.149,6.488-2.1,6.488-2.39,4.295-2.669,6.685-3.34,5.533-.955,5.631-1.621,14.314-62.045,14.314-62.045Z" transform="translate(-334.656 -160.286)" opacity="0.05"/>
  <path id="Path_102" data-name="Path 102" d="M768.665,729.623c12.6,2.364,14.892-7.3,14.892-7.3s1.549-8.589,2.147-9.234a1.058,1.058,0,0,0,.1-.821h0a11.2,11.2,0,0,0-1.817-4.047c-.79-.934-.145-4.8-.145-4.8l-14.6-3.722a21.966,21.966,0,0,0-1.43,4.295c-.139,1.358-2.292,7.521-2.065,8.378s-.929,3.51-1.074,4.868-1.93,3.366-2.065,4.083a17.559,17.559,0,0,1-.79,1.884,18.446,18.446,0,0,0-.929,2.911C760.138,729.122,768.665,729.623,768.665,729.623Z" transform="translate(-389.015 -381.852)" fill="#ca8496"/>
  <path id="Path_103" data-name="Path 103" d="M768.644,741.4c12.6,2.364,14.892-7.3,14.892-7.3s1.549-8.589,2.147-9.234a1.058,1.058,0,0,0,.1-.821l-3.035,8.693s-2.5,5.229-11.81,4.439c-5.3-.444-7.9-1.43-9.167-2.194a18.437,18.437,0,0,0-.929,2.911C760.117,740.9,768.644,741.4,768.644,741.4Z" transform="translate(-388.993 -393.633)" opacity="0.1"/>
  <path id="Path_104" data-name="Path 104" d="M791.846,728.974s-3.149.072-3.366-2.5Z" transform="translate(-402.388 -394.804)" opacity="0.1"/>
  <path id="Path_105" data-name="Path 105" d="M688.414,486.786c1.549,2.364,3.366,12.672,3.366,12.672a10.689,10.689,0,0,1,1.146,4.367,22.521,22.521,0,0,0,1.146,5.678l4.011,14.819s-.434,3.933,1.074,6.71,1.358,1.936.64,6.8.862,9.379,3.438,10.809-1.146,4.8-1.146,4.8,16.466,4.439,19.9,1.719-1.791-16.177-1.791-16.177.857-11.315.289-12.961-3.009-15.692-3.009-15.692-1.5-6.37-.929-7.443-.361-4.155-.361-4.155-2.431-3.433-2.22-4.506a6.617,6.617,0,0,0-.717-2.994s7.3-11.17,6.659-13.245.284-5.441.284-5.441.924-1.585,2.034-3.474c1.358-2.323,3-5.1,3.551-5.972a76.885,76.885,0,0,0,3.34-8.512l.671-1.941s1.141,21.045,2.147,23.192,2.5,19.1,2.5,19.1a12,12,0,0,1,.717,4.728c-.145,2.648,2.292,14.174,2.292,14.174s1.074,8.161.356,10.324-.144,17.968-.144,17.968-3.939,3.1-4.94,5.44.144,8.806.144,8.806,11.454,5.724,16.518,4.222,3-10.164,3-10.164,3.438-5.73,3.438-7.949a89.9,89.9,0,0,1,1.218-9.018c4.367-8.021,2.648-27.492,3.36-29.066s-1.476-7.448-3.278-10.076-1.074-9.807,0-11.872-1.063-9.291-1.063-9.291,2.065-13.89,2.008-16.038,1.791-8.517,1.791-8.517,1.858-3.293,1.43-4.295,1.43-3.582.929-4.728.428-4.646,1.363-6.71a43.168,43.168,0,0,0,1.549-6.6c.439-2.473.764-4.646.764-4.646l-11.815-9.518-29.495-7.743-11.1-3.582-10.809,17.034s-1.115,1.781-2.106,3.835c-.847,1.77-1.605,3.747-1.471,4.971a6.871,6.871,0,0,1-1,4.439s-6.468,20.415-6.323,26.294-2.271,18.758-2.271,18.758S686.84,484.422,688.414,486.786Z" transform="translate(-353.733 -237.233)" fill="#28417a"/>
  <path id="Path_106" data-name="Path 106" d="M629.973,209.76v44.675l-11.81,23.827h0l-.377.754-31.265-2.065-12.017-.795-27.894-1.843v-53.44l27.894.79,12.476.351,31.554.893Z" transform="translate(-264.461 -101.486)" fill="#00a779"/>
  <path id="Path_107" data-name="Path 107" d="M697.04,214.87v42.038l-2.885,5.817v.005l-2.963,5.962v.005l-5.962,12.037.666-44.675.134-9.013,5.673-6.277h0l2.472-2.736Z" transform="translate(-331.528 -103.958)" opacity="0.1"/>
  <path id="Path_108" data-name="Path 108" d="M629.27,183.775v15.6l-1.6,2.555-2.865,4.563-2.54,4.042-5.606,8.93-.134-.005-74.676-3.84V200.231l.186-.2,8.914-9.653,3.231-3.489,5.833-6.318Z" transform="translate(-262.158 -87.363)" fill="#00a779"/>
  <path id="Path_109" data-name="Path 109" d="M616.66,222.322v15.387l-74.81-3.846V218.471l.186-.2Z" transform="translate(-262.158 -105.603)" opacity="0.1"/>
  <path id="Path_110" data-name="Path 110" d="M699.39,186.78v15.6l-12.61,20.09V207.087Z" transform="translate(-332.278 -90.368)" opacity="0.15"/>
  <path id="Path_111" data-name="Path 111" d="M633.345,196.877l-.01,10.484v5.059l-.021,39.632v.005l-2.963,5.962.444-41.558.067-6.365h0l.1-9.389L559.48,196.3l3.231-3.489Z" transform="translate(-270.688 -93.285)" fill="#464353"/>
  <path id="Path_112" data-name="Path 112" d="M618.18,201.69l-5.012,10.876-.041,5.544-.459,54.937-12.017-.795V211.838l6.411-10.148Z" transform="translate(-290.606 -97.582)" fill="#464353"/>
  <path id="Path_113" data-name="Path 113" d="M631.592,269.265a15.888,15.888,0,0,1-8.956.315,3.649,3.649,0,0,1-1.549-.728,4.087,4.087,0,0,1-.97-1.925,15.247,15.247,0,0,1-.857-4.609,5.218,5.218,0,0,1,1.915-4.129,4.2,4.2,0,0,0,.728-.547,2.922,2.922,0,0,0,.563-1.141c.878-2.612,2.581-5.373,5.3-5.792,2.514-.382,4.8,1.373,6.736,3.02l4.248,3.613a6.71,6.71,0,0,1,12.5-.17,23.713,23.713,0,0,1,9.451-6.483,2.9,2.9,0,0,1,2.483-.1,2.845,2.845,0,0,1,.986,1.327,20.374,20.374,0,0,1,1.843,8.052,1.409,1.409,0,0,1,1.636.568,3.7,3.7,0,0,1,.547,1.776,25.149,25.149,0,0,1,.17,2.927,4.42,4.42,0,0,1-.769,2.927c-.867,1.007-2.364,1.115-3.7,1.146a1.487,1.487,0,0,1-.382,2.2,4.3,4.3,0,0,1-2.488.48c-3.3-.031-6.819-.124-9.57-1.961-1.084-.723-1.992-1.688-3.1-2.411-2.669-1.765-6.019-1.848-9.105-1.7C636.459,266.08,634.245,268.4,631.592,269.265Z" transform="translate(-320.516 -164.444)" fill="#464353"/>
  <path id="Path_114" data-name="Path 114" d="M612.545,285.62s-27.574,3.846-31.425,20.518l5.776-.852,4.057,7.268s4.279-16.249,16.889-20.095,17.1-4.491,17.1-4.491,8.775,2.142,16.673,27.574l4.491-6.194,7.908,1.714s-5.771-19.878-21.375-25.437Z" transform="translate(-302.063 -181.512)" fill="#464353"/>
  <path id="Path_115" data-name="Path 115" d="M772.419,212.6c.454-.186,31.6-13.044,27.306-15.6-2.545-1.518-5.678-7.944-7.825-12.977-1.5-3.52-2.514-6.349-2.514-6.349s-24.993-4.439-16.048,10.881a28.318,28.318,0,0,1,3.154,7.547C779.041,206.53,772.625,212.409,772.419,212.6Z" transform="translate(-394.126 -128.994)" fill="#fec2be"/>
  <path id="Path_116" data-name="Path 116" d="M773.338,188.551a28.318,28.318,0,0,1,3.154,7.547,17.468,17.468,0,0,0,14.758-10.375,16.5,16.5,0,0,0,.65-1.7c-1.5-3.52-2.514-6.349-2.514-6.349S764.392,173.231,773.338,188.551Z" transform="translate(-394.126 -128.994)" opacity="0.1"/>
  <path id="Path_117" data-name="Path 117" d="M745.05,162.688a17.468,17.468,0,0,0,33.449,7.051,17.293,17.293,0,0,0,1.487-7.051,17.468,17.468,0,0,0-34.935,0Z" transform="translate(-381.375 -113.583)" fill="#fec2be"/>
  <path id="Path_118" data-name="Path 118" d="M712.4,421.685a10.662,10.662,0,0,1,2.534,4.826s8.615,5.879,8.021,2.147,4.439-18.753,4.439-18.753l-.573,20.472s27.487-1.285,29.494-3.293,13.746-5.869,13.746-5.869,3.613,2.885,6.9,5.074c.439-2.473.764-4.646.764-4.646l-11.815-9.518-29.494-7.743-11.1-3.582-10.809,17.034S713.391,419.63,712.4,421.685Z" transform="translate(-365.579 -237.238)" opacity="0.1"/>
  <path id="Path_119" data-name="Path 119" d="M708.2,324.024c2.287,1.435,3.149,5.3,3.149,5.3s8.589,5.869,8.016,2.147,4.439-18.758,4.439-18.758l-.573,20.472s27.492-1.285,29.495-3.293,13.746-5.869,13.746-5.869,10.164,8.161,12.027,7.448-3.293-14.608-3.293-14.608l-5.3-81.324s1.43-24.2-.718-25.055a3.1,3.1,0,0,1-.9-.563c-1.414-1.275-1.838-3.856-1.961-6.024-.139-2.581-3.577-1.29-3.577-1.29l2,2.581-17.741,10.783-.155.1a20.206,20.206,0,0,0-2.132-.97c-1.549-.6-3.66-1.172-5.028-.6a4.848,4.848,0,0,0-1.879,1.688,21.268,21.268,0,0,0-2.416,4.9l-6.442,10.881s-3.293,14.453-3.293,15.031-1,13.746-2.147,15.176-2.292,8.594-1.863,10.742-.718,10.164-.718,10.164c-4.723,3.866-7.159,17.034-7.159,17.034s-7.443,14.747-8.016,16.466S705.909,322.594,708.2,324.024Z" transform="translate(-362.277 -141.192)" fill="#fff"/>
  <path id="Path_120" data-name="Path 120" d="M785.85,217.072c1.74,2.581,6.767,6.194,6.767,6.194l14.51-12.254c-1.414-1.275-1.838-3.856-1.961-6.024-.139-2.581-3.577-1.29-3.577-1.29l.413.516a2.307,2.307,0,0,1-.619,3.386Z" transform="translate(-401.115 -141.72)" opacity="0.1"/>
  <path id="Path_121" data-name="Path 121" d="M785.85,215.962c1.74,2.581,6.767,6.194,6.767,6.194l14.51-12.254c-1.414-1.275-1.838-3.856-1.961-6.024-.139-2.581-3.577-1.29-3.577-1.29l.413.516a2.307,2.307,0,0,1-.619,3.386Z" transform="translate(-401.115 -141.183)" fill="#fff"/>
  <path id="Path_122" data-name="Path 122" d="M772.85,230.473c1.874,2.245,4.532,4.785,4.408,3.51s1.585-4.083,2.674-5.342a7.923,7.923,0,0,0-5.2.139,4.9,4.9,0,0,0-1.879,1.693Z" transform="translate(-394.825 -153.764)" opacity="0.1"/>
  <path id="Path_123" data-name="Path 123" d="M772.29,229.077c1.879,2.24,4.532,4.785,4.408,3.51s1.409-3.335,2.5-4.594c-1.549-.6-3.655-1.172-5.028-.609A4.821,4.821,0,0,0,772.29,229.077Z" transform="translate(-394.555 -153.224)" fill="#fff"/>
  <circle id="Ellipse_21" data-name="Ellipse 21" cx="1.146" cy="1.146" r="1.146" transform="translate(381.287 85.469)" fill="#ff718d"/>
  <circle id="Ellipse_22" data-name="Ellipse 22" cx="1.146" cy="1.146" r="1.146" transform="translate(372.6 116.393)" fill="#ff718d"/>
  <circle id="Ellipse_23" data-name="Ellipse 23" cx="1.146" cy="1.146" r="1.146" transform="translate(362.766 147.705)" fill="#ff718d"/>
  <circle id="Ellipse_24" data-name="Ellipse 24" cx="1.146" cy="1.146" r="1.146" transform="translate(362.482 181.778)" fill="#ff718d"/>
  <circle id="Ellipse_25" data-name="Ellipse 25" cx="1.146" cy="1.146" r="1.146" transform="translate(376.228 100.072)" fill="#ff718d"/>
  <circle id="Ellipse_26" data-name="Ellipse 26" cx="1.146" cy="1.146" r="1.146" transform="translate(368.496 131.858)" fill="#ff718d"/>
  <circle id="Ellipse_27" data-name="Ellipse 27" cx="1.146" cy="1.146" r="1.146" transform="translate(360.954 163.072)" fill="#ff718d"/>
  <circle id="Ellipse_28" data-name="Ellipse 28" cx="1.146" cy="1.146" r="1.146" transform="translate(362.673 185.598)" fill="#ff718d"/>
  <path id="Path_124" data-name="Path 124" d="M803.141,217.984s-.191-1.719,2.292,1.239a30.231,30.231,0,0,0,7.159,5.539s10.6,7.443,11.165,10.881,4.006,18.324,2.194,23.29-15.656,28.731-15.656,28.731,3.613,4.295,2.772,9.353-1.91,12.027-1.435,13.555-.573,5.342,1.032,6.679,3.34,3.613-1.719,6.685c0,0-.955,2.581-.1,3.149s-12.693,6.494-18.041,3.34-14.969-28.349-15.176-33.98,2.958-24.26,4.677-28.638,6.875-21.473,9.069-25.293S803.141,217.984,803.141,217.984Z" transform="translate(-397.134 -148.548)" opacity="0.1"/>
  <path id="Path_125" data-name="Path 125" d="M804.236,217.984s-.191-1.719,2.292,1.239a30.229,30.229,0,0,0,7.159,5.539s10.592,7.443,11.17,10.881,4.006,18.324,2.194,23.29-15.676,28.731-15.676,28.731,3.613,4.295,2.772,9.353-1.91,12.027-1.435,13.555-.573,5.342,1.032,6.679,3.34,3.613-1.719,6.685c0,0-.955,2.581-.1,3.149s-12.693,6.494-18.04,3.34-14.969-28.349-15.176-33.98,2.958-24.26,4.677-28.638,6.876-21.473,9.069-25.293S804.236,217.984,804.236,217.984Z" transform="translate(-397.656 -148.548)" fill="#28417a"/>
  <path id="Path_126" data-name="Path 126" d="M828.137,249.88s-8.207,9.069-7.923,15.083C820.213,264.963,820.1,255.228,828.137,249.88Z" transform="translate(-417.737 -164.22)" opacity="0.1"/>
  <path id="Path_127" data-name="Path 127" d="M804.7,278.73c0,.289-5.533,20.905-5.25,23.481s-1.621,10.21-1.621,10.21l-2.581-.671s2-10.592,2.385-14.5S804.7,278.73,804.7,278.73Z" transform="translate(-405.663 -178.178)" opacity="0.1"/>
  <path id="Path_128" data-name="Path 128" d="M809.31,392.64c.191.289,13.08,14.892,9.451,15.94S809.31,392.64,809.31,392.64Z" transform="translate(-412.466 -233.29)" opacity="0.1"/>
  <path id="Path_129" data-name="Path 129" d="M829.84,385.43c.284.191,5.162,10.5,5.724,7.743s-4.2,7.541-4.96-.1Z" transform="translate(-422.398 -229.802)" opacity="0.1"/>
  <path id="Path_130" data-name="Path 130" d="M752.392,224.146s-5.322-3.242-12.006,5.059c0,0-4.867,2.772-6.3,3.438s-3.056,18.422-3.056,18.422-3.149,7.634-2.292,12.027-2.478,19.476-2.478,19.476-5.539,27.1-5.348,27.874,5.631-8.5,5.533-13.075,4.584-18.9,5.255-19.759,5.255-25.4,5.255-25.4,3.722-10.406,6.106-13.839,5.348-9.926,6.586-11.072a12.5,12.5,0,0,1,2.958-1.91Z" transform="translate(-369.696 -151.467)" opacity="0.1"/>
  <path id="Path_131" data-name="Path 131" d="M751.887,224.146s-5.967-3.242-12.652,5.059c0,0-4.868,2.772-6.3,3.438s-3.056,18.422-3.056,18.422-3.149,7.634-2.292,12.027-2.478,19.476-2.478,19.476-5.539,27.1-5.348,27.874,5.632-8.5,5.539-13.075,4.578-18.9,5.25-19.759,5.25-25.391,5.25-25.391,3.722-10.406,6.106-13.839,5.348-9.926,6.586-11.072a11.732,11.732,0,0,1,3.531-1.91Z" transform="translate(-369.14 -151.467)" fill="#28417a"/>
  <path id="Path_132" data-name="Path 132" d="M706.73,335.82s-11.356-7.443-16.848-3.773-14.453,8.878-5.631,12.652,21.045,3.051,21.045,3.051Z" transform="translate(-350.163 -203.482)" fill="#fec2be"/>
  <path id="Path_133" data-name="Path 133" d="M745.99,472.609c1.693,3.613,3.1,21.881,4.037,27.667,1.358-2.323,3-5.105,3.551-5.972a76.88,76.88,0,0,0,3.34-8.512c-1.079-2.622-4.057-10.138-4.057-12.9,0-3.365-5.441-7.588-5.441-7.588A6.321,6.321,0,0,0,745.99,472.609Z" transform="translate(-381.525 -268.444)" opacity="0.1"/>
  <path id="Path_134" data-name="Path 134" d="M801.58,585.321s-12.6-5.373-16.322-1.549S801.58,585.321,801.58,585.321Z" transform="translate(-400.606 -325.099)" opacity="0.1"/>
  <path id="Path_135" data-name="Path 135" d="M803.58,592.22s12.745,7.159,8.378,8.372S803.58,592.22,803.58,592.22Z" transform="translate(-409.693 -329.851)" opacity="0.1"/>
  <path id="Path_136" data-name="Path 136" d="M729.8,580.15s5.44.356,3.36,1.43S729.8,580.15,729.8,580.15Z" transform="translate(-373.997 -324.011)" opacity="0.1"/>
  <path id="Path_137" data-name="Path 137" d="M716.62,583.34c.072.356,15.821,5.44,12.745,7.743S716.62,583.34,716.62,583.34Z" transform="translate(-367.62 -325.554)" opacity="0.1"/>
  <path id="Path_138" data-name="Path 138" d="M802.86,664.806c-2.359-.356-15.532-6.442-10.38-2.065A10.226,10.226,0,0,0,802.86,664.806Z" transform="translate(-403.749 -363.208)" opacity="0.1"/>
  <path id="Path_139" data-name="Path 139" d="M794.869,677.51s-1.146,4.439-5.513,3.866S794.869,677.51,794.869,677.51Z" transform="translate(-402.272 -371.116)" opacity="0.1"/>
  <path id="Path_140" data-name="Path 140" d="M798.427,692.151c-.79-.217-10.169-4.511-10.38-2.509s8.945,5.513,9.663,4.439A3.832,3.832,0,0,0,798.427,692.151Z" transform="translate(-402.176 -376.729)" opacity="0.1"/>
  <path id="Path_141" data-name="Path 141" d="M736.2,683.4c-1.146-.072-11.872-3.5-14.03-.428Z" transform="translate(-370.305 -373.14)" opacity="0.1"/>
  <path id="Path_142" data-name="Path 142" d="M726.646,687.911s-1.863-1.647-3.722-.785S726.646,687.911,726.646,687.911Z" transform="translate(-370.487 -375.647)" opacity="0.1"/>
  <path id="Path_143" data-name="Path 143" d="M774.251,723.28a3.19,3.19,0,0,1-2.431,2.5Z" transform="translate(-394.327 -393.26)" opacity="0.1"/>
  <path id="Path_144" data-name="Path 144" d="M670.418,714.634c.718,2.932,10.742,3.221,15.537,2.431s14.747-3.629,14.747-3.629,10.453-1,13.529-2.292.645-4.584.645-4.584v-.3c.072-1.2.289-5.539-.449-6.71-.862-1.357-.361-5.8-.361-5.8s-14.814,2.865-15.1,1.5-2.581-3.293-3.649-3.722-1.863,3.577-1.863,3.577-6.71,5.73-7.159,7.8-5.162,3.149-5.162,3.149-7.159,2.008-9.023,3.009a3.474,3.474,0,0,0-1.977,2.777,7.919,7.919,0,0,0,.289,2.787Z" transform="translate(-345.117 -377.883)" fill="#ca8496"/>
  <path id="Path_145" data-name="Path 145" d="M670.437,728.468c.718,2.932,10.742,3.221,15.537,2.431s14.747-3.629,14.747-3.629,10.453-1,13.529-2.292.645-4.584.645-4.584v-.3L699.927,723.4s-7.371,3.149-12.094,3.149c-4.129,0-13.369,1.693-17.658-.872A7.916,7.916,0,0,0,670.437,728.468Z" transform="translate(-345.135 -391.717)" opacity="0.1"/>
  <path id="Path_146" data-name="Path 146" d="M710,714.4s.717,4.728,3.582,6.3Z" transform="translate(-364.417 -388.964)" opacity="0.1"/>
  <path id="Path_147" data-name="Path 147" d="M746.37,157.849a4.645,4.645,0,0,0,.847.351c1.347.361,2.658-.542,3.851-1.265s2.839-1.259,3.871-.325c1.347,1.223.372,3.84,1.76,5.017.878.748,2.271.516,3.247,1.11s1.27,1.956,1.518,3.123.738,2.488,1.879,2.829,2.194-.408,3.314-.367c.232,0,.516.036.661-.134a.692.692,0,0,0,.108-.516,11.04,11.04,0,0,1,.367-4.129,3.991,3.991,0,0,1,2.906-2.725c2.013-.31,3.7,1.456,4.883,3.1a50.726,50.726,0,0,1,3.386,5.451,4.052,4.052,0,0,1,.17.377,17.291,17.291,0,0,0,1.487-7.051,17.468,17.468,0,0,0-34.254-4.837Z" transform="translate(-382.014 -113.581)" opacity="0.1"/>
  <path id="Path_148" data-name="Path 148" d="M766.81,154.3c-1.182-1.657-2.87-3.417-4.883-3.1a3.95,3.95,0,0,0-2.906,2.72,10.964,10.964,0,0,0-.361,4.129.713.713,0,0,1-.119.516c-.155.17-.423.145-.656.134-1.12-.041-2.235.687-3.314.366s-1.631-1.662-1.879-2.829-.516-2.488-1.518-3.1-2.369-.361-3.247-1.11c-1.389-1.182-.413-3.8-1.76-5.017-1.032-.939-2.679-.4-3.871.32s-2.5,1.626-3.851,1.27c-.454-.124-.862-.387-1.306-.557-2.121-.805-4.873.563-6.617-.893a5.086,5.086,0,0,1-1.321-2.287,14.563,14.563,0,0,1-.965-3.644,4.873,4.873,0,0,1,.97-3.556c1.136-1.342,3.056-1.672,4.506-2.663a11.265,11.265,0,0,0,2.88-3.4,12.772,12.772,0,0,1,2.792-3.474,4.127,4.127,0,0,1,4.2-.656,4.734,4.734,0,0,0,1.378.65,2.865,2.865,0,0,0,1.549-.418c4.966-2.338,10.747-1.925,16.193-1.229a21,21,0,0,1,6.375,1.549,7.642,7.642,0,0,1,4.3,4.713c.444,1.683.1,3.51.64,5.162.361,1.125,1.1,2.065,1.548,3.2,1.161,3.014-.227,6.328-.816,9.508-.645,3.474-.32,7.227-1.8,10.525-.289.645-.614,1.776-1.342,1.347-.516-.315-1.063-2.147-1.373-2.715A50.23,50.23,0,0,0,766.81,154.3Z" transform="translate(-373.223 -104.252)" fill="#9a5e7f"/>
  <path id="Path_149" data-name="Path 149" d="M795.567,273.837l2.581,7.35s-6.112,22.712-8.976,27.492-7.061,10.881-7.061,10.881a26.216,26.216,0,0,1-15.274,1.91c-8.212-1.621-32.168-5.921-32.168-5.921a3.177,3.177,0,0,1-3.051-1.146c-1.048-1.528-6.494-2.292-6.494-2.292s-6.3-9.162,1.435-12.982c0,0,.95,2.1,5.059.671s5.342,1.146,5.342,1.146,6.685,1.337,10.406.857,12.982-.666,13.937-1.43a1.223,1.223,0,0,1,1.719.093,10.43,10.43,0,0,0,3.051-1.714c.764-.857,1.817.95,1.817.95s1.337-.759.955-1.714,1.239-4.584,1.239-4.584a9.258,9.258,0,0,0,.284-4.295c-.48-1.91,2.39-8.775,2.39-8.775a12.153,12.153,0,0,0-.382-3.438c-.48-1.719,3.613-5.162,3.613-5.162S780,252.266,788.5,258.661,795.567,273.837,795.567,273.837Z" transform="translate(-370.565 -167.844)" opacity="0.1"/>
  <path id="Path_150" data-name="Path 150" d="M796.7,273.837l2.581,7.35s-6.111,22.712-8.976,27.492-7.061,10.881-7.061,10.881a26.227,26.227,0,0,1-15.274,1.91c-8.207-1.621-32.179-5.921-32.179-5.921a3.177,3.177,0,0,1-3.051-1.146c-1.048-1.528-6.494-2.292-6.494-2.292s-6.3-9.162,1.435-12.982c0,0,.95,2.1,5.059.671s5.343,1.146,5.343,1.146,6.71,1.337,10.406.857,12.982-.666,13.937-1.43a1.218,1.218,0,0,1,1.714.093,10.437,10.437,0,0,0,3.056-1.714c.764-.857,1.817.95,1.817.95s1.332-.759.95-1.714,1.244-4.584,1.244-4.584a9.258,9.258,0,0,0,.284-4.295c-.48-1.91,2.39-8.775,2.39-8.775a12.142,12.142,0,0,0-.382-3.438c-.48-1.719,3.613-5.162,3.613-5.162s4.011-19.47,12.507-13.075S796.7,273.837,796.7,273.837Z" transform="translate(-371.107 -167.844)" fill="#28417a"/>
  <path id="Path_151" data-name="Path 151" d="M743.7,348.82c.1.666,2.2,3.34,1.435,3.815s-2.008.191-.862,1.719,1.032,3.82.289,3.531-2-3.722-2-5.059A15.019,15.019,0,0,1,743.7,348.82Z" transform="translate(-380.17 -212.089)" opacity="0.1"/>
  <path id="Path_152" data-name="Path 152" d="M799.7,345.86s.573,6.679,5.25,8.589S799.7,345.86,799.7,345.86Z" transform="translate(-407.816 -210.657)" opacity="0.1"/>
  <path id="Path_153" data-name="Path 153" d="M818.56,341.42c.284.093,6.679,3.531,3.815,5.533S818.56,341.42,818.56,341.42Z" transform="translate(-416.941 -208.509)" opacity="0.1"/>
  <path id="Path_154" data-name="Path 154" d="M819.3,332.17s9.353,1.91,6.194,3.531S819.3,332.17,819.3,332.17Z" transform="translate(-417.299 -204.033)" opacity="0.1"/>
  <g id="Group_91" data-name="Group 91" transform="translate(354.972 35.544)" opacity="0.1">
    <path id="Path_155" data-name="Path 155" d="M787.493,168.127a3.984,3.984,0,0,1,2.906-2.72c2.013-.31,3.7,1.45,4.883,3.1a50.151,50.151,0,0,1,3.386,5.446c.31.573.836,2.405,1.373,2.72.728.428,1.032-.707,1.342-1.352,1.476-3.283,1.151-7.046,1.8-10.52a61.17,61.17,0,0,0,1.229-6.137c.217,2.493-.759,5.12-1.229,7.665-.645,3.474-.32,7.227-1.8,10.52-.289.645-.614,1.776-1.342,1.352-.516-.315-1.063-2.147-1.373-2.72a50.173,50.173,0,0,0-3.365-5.441c-1.182-1.662-2.87-3.417-4.883-3.1a3.95,3.95,0,0,0-2.906,2.72,7.569,7.569,0,0,0-.382,2.147,9.873,9.873,0,0,1,.361-3.68Z" transform="translate(-756.687 -155.63)"/>
    <path id="Path_156" data-name="Path 156" d="M729.176,156.223a5.115,5.115,0,0,0,1.321,2.287c1.745,1.456,4.5.083,6.617.893a13,13,0,0,0,1.306.552c1.347.361,2.658-.516,3.851-1.265s2.839-1.259,3.871-.325c1.347,1.223.372,3.84,1.76,5.017.878.754,2.271.516,3.247,1.11s1.27,1.956,1.518,3.1.738,2.488,1.879,2.829,2.194-.408,3.314-.366c.232,0,.516.036.656-.134a.382.382,0,0,0,.083-.139c0,.382,0,.764.036,1.146a.723.723,0,0,1-.119.516c-.155.17-.423.145-.656.134-1.12-.041-2.235.687-3.314.366s-1.631-1.667-1.879-2.829-.516-2.488-1.518-3.123-2.369-.361-3.247-1.11c-1.389-1.177-.413-3.794-1.76-5.017-1.032-.934-2.679-.4-3.871.325s-2.5,1.626-3.851,1.265c-.454-.124-.862-.382-1.306-.552-2.122-.81-4.873.563-6.617-.893a5.1,5.1,0,0,1-1.321-2.292,14.449,14.449,0,0,1-.965-3.644,5.9,5.9,0,0,1,.031-1.28A15.485,15.485,0,0,0,729.176,156.223Z" transform="translate(-728.189 -152.79)"/>
  </g>
  <path id="Path_157" data-name="Path 157" d="M274.06,592.458c0,32.22,18.7,58.328,41.769,58.328S357.6,624.668,357.6,592.458s-18.7-58.328-41.769-58.328S274.06,560.244,274.06,592.458Zm2.88-.779c0-28.2,16.446-51.071,36.726-51.071s36.757,22.877,36.757,51.071-16.445,51.071-36.731,51.071S276.94,619.883,276.94,591.679Z" transform="translate(-153.501 -301.746)" fill="#35323e"/>
  <path id="Path_158" data-name="Path 158" d="M319.563,400.18l2.88,48.975h56.6a19.615,19.615,0,0,1,13.307,5.033,17.736,17.736,0,0,1,5.709,11.531v73.458h-7.226l.052-5.043H319.537v-7.227h71.45l.589-58.937a9.573,9.573,0,0,0-.227-2.2,11.636,11.636,0,0,0-5.017-7.469,9.353,9.353,0,0,0-4.8-1.249H317.39l-3.613-51.133H292.2V400.18Z" transform="translate(-162.277 -236.938)" fill="#464353"/>
  <path id="Path_159" data-name="Path 159" d="M319.563,400.18l2.88,48.975h56.6a19.615,19.615,0,0,1,13.307,5.033,17.736,17.736,0,0,1,5.709,11.531v73.458h-7.226l.052-5.043H319.537v-7.227h71.45l.589-58.937a9.573,9.573,0,0,0-.227-2.2,11.636,11.636,0,0,0-5.017-7.469,9.353,9.353,0,0,0-4.8-1.249H317.39l-3.613-51.133H292.2V400.18Z" transform="translate(-162.277 -236.938)" opacity="0.1"/>
  <path id="Path_160" data-name="Path 160" d="M250.264,365.486l-54.374-1.8,2.88,75.615,130.351,1.44-3.242-30.6-70.939,11.882Z" transform="translate(-94.775 -175.96)" fill="#35323e"/>
  <rect id="Rectangle_68" data-name="Rectangle 68" width="72.017" height="7.201" transform="translate(106.152 289.99)" fill="#464353"/>
  <path id="Path_161" data-name="Path 161" d="M337.633,615.323V594.16h5.761v21.163c2.132,1.6,3.613,4.888,3.613,8.7,0,5.368-2.906,9.72-6.483,9.72s-6.483-4.351-6.483-9.72C334.045,620.212,335.516,616.918,337.633,615.323Z" transform="translate(-182.52 -330.789)" fill="#464353"/>
  <path id="Path_162" data-name="Path 162" d="M383.743,668.374a6.772,6.772,0,0,0-8.853-.315h0s-8.641,5.76-.723,30.248c0,0,5.766,3.613,2.88-7.923s-1.44-18.727,1.44-18.727,6.483,7.923,6.483,7.923l5.043-2.158A30.628,30.628,0,0,0,383.743,668.374Z" transform="translate(-200.319 -365.82)" fill="#464353"/>
  <path id="Path_163" data-name="Path 163" d="M488.383,668.374a6.772,6.772,0,0,0-8.852-.315h0s-8.641,5.76-.723,30.248c0,0,5.766,3.613,2.885-7.923s-1.445-18.727,1.44-18.727,6.478,7.923,6.478,7.923l5.043-2.158A30.628,30.628,0,0,0,488.383,668.374Z" transform="translate(-250.946 -365.82)" fill="#464353"/>
  <ellipse id="Ellipse_29" data-name="Ellipse 29" cx="16.203" cy="21.607" rx="16.203" ry="21.607" transform="translate(220.662 308.717)" fill="#35323e"/>
  <ellipse id="Ellipse_30" data-name="Ellipse 30" cx="16.203" cy="21.607" rx="16.203" ry="21.607" transform="translate(166.649 308.717)" fill="#35323e"/>
  <path id="Path_164" data-name="Path 164" d="M383.348,512.922c-1.667-1.7-4.207-2.958-5.74-2.958-3.226,0-15.945-15.093-16.791-17.23-.31-.779-.826-.516-1.352.17a40.1,40.1,0,0,1-2.746-8.336c1.363-.346,2.235-.6,2.235-.6s.165-4.862-1.032-5.368h-.031c-1.156-.681-1.156-10.711-1.156-10.711s-2.71-8.863-2.369-12.063-6.767-27.559-6.767-27.559-1.863-14.644-5.255-16.125c-2.865-1.254-27-8.14-34.45-10.257-.16-.361-1.316-2.633-5.064-2.633-4.073,0-16.28.17-20.348-4.527a9.41,9.41,0,0,1-1.254-2.034c2.013-3.7,2.142-9.807,1.419-11.217a27.153,27.153,0,0,1-1.693-6.039s-.516-9.725-1.2-12.244-3.551-23.146-3.551-23.146-5.766-5.5-9.838-6.685a17.034,17.034,0,0,1-4.93-2.581c.062-.336.124-.64.17-.9a15.243,15.243,0,0,0,5.162-8.641,2.43,2.43,0,0,0,.165-.573,5.814,5.814,0,0,0,.041-.795c.052-.485.083-.976.088-1.471v-.32a1.968,1.968,0,0,1,.284-.671c.594-.852,1.817-1.032,2.793-1.456a4.236,4.236,0,0,0,.428-.227l.124-.083c.093-.057.181-.114.263-.176l.145-.119.212-.181.139-.139c.062-.062.124-.124.181-.191l.134-.16c.052-.067.1-.129.15-.2l.124-.181a2.075,2.075,0,0,0,.124-.2c.041-.067.083-.134.119-.206s.067-.129.1-.191.077-.155.108-.232a1.773,1.773,0,0,0,.072-.175c.036-.088.072-.176.1-.263l.046-.139c.031-.1.067-.206.1-.315v-.031a8.068,8.068,0,0,0,.237-2.679h0a4.175,4.175,0,0,0-.077-.671c-.253-1.549-.81-3.144-.625-4.671h0a2.184,2.184,0,0,1,.067-.4v-.046a4.1,4.1,0,0,1,.114-.413c.212-.614.573-1.177.769-1.791h0a3.55,3.55,0,0,0,.1-.387v-.1c0-.108.031-.217.036-.325v-.077a3.917,3.917,0,0,0-.057-.847h0a5.538,5.538,0,0,0-1.843-3.1,14.213,14.213,0,0,0-5.033-2.5,57.873,57.873,0,0,0-14.4-3.329c-2.158-.139-4.981-.805-6.71.516A23.382,23.382,0,0,1,239.6,295.5c-1.812.759-3.7,1.925-4.129,3.758a14.452,14.452,0,0,0-.088,2.457,19.141,19.141,0,0,1-1.389,4.77,7.226,7.226,0,0,0-.382,2.88v.046a1.816,1.816,0,0,0,.052.336v.057a3.849,3.849,0,0,0,.222.718c0,.031.026.057.036.088s.083.17.129.253l.046.088c.067.108.134.212.212.315.315.418.738.769,1.032,1.208a4.945,4.945,0,0,1,.588,2.225c.083.785.16,1.574.243,2.359v.176c-.026.346-.041.7-.041,1.032a15.644,15.644,0,0,0,.2,2.426c-1.719,1.3-3.489,2.849-3.856,3.985a1.926,1.926,0,0,0-.408,1.136h0c-1.616,1.265-8.481.516-8.481.516s-5.6,3.02-7.629,1.843-14.247,8.218-14.247,8.218-3.221.17-3.391,1.512c0,0-4.068,3.02-7.123,3.02s-4.919,3.856-4.919,3.856a55.009,55.009,0,0,1-6.783,2.684c-1.7.336-4.579,2.013-3.727,2.684s-.17,2.178-1.7,3.355-3.9,7.227-1.863,8.047,7.629,2.519,9.157,3.355a3.308,3.308,0,0,0,1.9.356,4.857,4.857,0,0,0,2.168-.356l.237-.294c1.992,1.512,4.589,3.066,7.087,3.314,3.933.392,12.388,2,15.971,2.7v.666c-.031,6.266.263,12.76,1.471,14.747,2.545,4.2,2.88,37.067,2.88,37.067s7.97,1.177,10.685,3.691c2.581,2.374,15.578,6.71,18.144,1.079l.816.351c6.607,2.865,15.377,6.943,16.384,8.775,1.626,3.02,13.328,8.052,13.328,8.052s7.634.165,5.425,7.227S292.5,476.232,292.5,476.232a4.646,4.646,0,0,0,.97,2.958,4.817,4.817,0,0,0,.723.733,14.315,14.315,0,0,0,5.224,1.879,10.5,10.5,0,0,1,1.032,2.818c-.088.2.733.924,1.812,1.874h0a38.329,38.329,0,0,0,2.916,5.322h0a4.4,4.4,0,0,0,1.512,1.523c1.652.671,18.861,10.9,22.087,11.237,3,.315,9.09,1.786,14.572-2.483l-.883,7.154-.294,2.374s8.651,3.52,12.213,3.52,15.6,5.7,15.6,5.7,7.97,1.678,13.23-1.843C385.965,517.16,385.186,514.765,383.348,512.922Zm-54.715-77.778c-.852,1.843-.3,5.2.1,5.2s2.271,2.684,1.254,5.7,6.612,30.522,10,34.212a.784.784,0,0,1-.062.253c-.248,1.12-.96,5.678,3.794,5.952h.542c.361,2.87.9,7.387,1.234,11.134-.764-2.225-3.711-4.48-6.654-6.256a58.729,58.729,0,0,0-6.824-3.479s-9.5-2.261-11.531-4.13-8.1-5.219-8.1-5.219h0c-.955-.862-2.029-1.832-3.04-2.762.057-.392.093-.805.114-1.244a19.886,19.886,0,0,0-.9-2.581,5.019,5.019,0,0,0-1.476-2.137c-1.352-.836-5.936-18.113-5.936-20.131s-2.88-11.573-3.9-13.25a34.337,34.337,0,0,1-2.2-5.884s15.429,2.364,29.846,1.032C324.875,431.618,329.454,433.3,328.633,435.144ZM209.22,357.655v.2l-.9-.222C208.879,357.655,209.22,357.655,209.22,357.655Zm48.955-25.6v.934l-.175-.181c-.145-.16-.279-.325-.418-.49a4.624,4.624,0,0,0,.594-.263Zm16.6,35.3c-.17-.986-.263-1.549-.263-1.549l.062-.945ZM196.31,355.451a4.932,4.932,0,0,1,1.1-.237,2.736,2.736,0,0,1,.945.258c.4.186.81.361,1.229.516l-2.958-.516a1.639,1.639,0,0,0-.315-.016Z" transform="translate(-103.836 -184.079)" fill="url(#linear-gradient-2)"/>
  <path id="Path_165" data-name="Path 165" d="M414.17,645.826s3.407,7.051,3.242,7.552,7.319,6.488,7.319,6.488l8.156-5.822-.831-4s-9.152-8.259-9.807-9.2S414.17,645.826,414.17,645.826Z" transform="translate(-221.289 -353.327)" fill="#a1616a"/>
  <path id="Path_166" data-name="Path 166" d="M465.376,675.895c-5.678,5.492-12.316,3.825-15.485,3.495s-20.054-10.489-21.68-11.155a4.3,4.3,0,0,1-1.481-1.507h0a38.931,38.931,0,0,1-2.86-5.286c.114.031,5.652,1.611,7.051,0,0,0,2.328-2.86,2.829-2.86s.036-5.012.036-5.012,5.957,3.35,7.954,5.162,11.315,4.078,11.315,4.078a57.446,57.446,0,0,1,6.71,3.453C464.2,668.973,468.6,672.772,465.376,675.895Z" transform="translate(-225.982 -359.533)" fill="#67647e"/>
  <path id="Path_167" data-name="Path 167" d="M468.056,687.806c-5.678,5.492-12.316,3.825-15.485,3.495s-20.054-10.489-21.68-11.155a4.3,4.3,0,0,1-1.481-1.507c1.972-1.177,14.835,7,18.438,8.5s12.708.666,17.87-1.5c2.581-1.079-.036-4.4-3.288-7.454C466.88,680.884,471.277,684.684,468.056,687.806Z" transform="translate(-228.662 -371.445)" opacity="0.1"/>
  <path id="Path_168" data-name="Path 168" d="M503,661.01s2.374,17.808,1.77,20.131,14.876-7.99,14.876-7.99-5.415-11.16-3.83-13.725S503,661.01,503,661.01Z" transform="translate(-264.267 -361.961)" fill="#a1616a"/>
  <path id="Path_169" data-name="Path 169" d="M417.958,584.071s-9.653,2.829-14.969,2.493c-4.646-.289-3.969-4.79-3.722-5.905.036-.16.062-.253.062-.253-3.329-3.66-10.84-30.971-9.807-33.954s-.831-5.678-1.229-5.678-.934-3.329-.1-5.162-3.66-3.495-3.66-3.495c-14.148,1.332-29.293-1.032-29.293-1.032a33.925,33.925,0,0,0,2.163,5.843c1,1.662,3.83,11.155,3.83,13.152s4.491,19.14,5.823,19.971a4.988,4.988,0,0,1,1.45,2.116,20.2,20.2,0,0,1,.883,2.545c-.516,11.149-13.152,6.824-14.969,5.327a4.563,4.563,0,0,1-1.662-3.665S336.237,559.6,338.4,552.62s-5.327-7.154-5.327-7.154-11.48-5.007-13.08-8c-.986-1.843-9.6-5.89-16.084-8.734-4.062-1.781-7.288-3.1-7.288-3.1l2.7-9.663,2.142-7.634,4.006-1.507,12.791-4.8,23-3.164,2.106.274,22.335,2.891s32.623,9.317,35.952,10.788,5.162,16,5.162,16,6.989,24.137,6.659,27.311,2.328,11.97,2.328,11.97,0,9.957,1.13,10.633h.036C418.118,579.244,417.958,584.071,417.958,584.071Z" transform="translate(-164.416 -284.686)" fill="#28417a"/>
  <path id="Path_170" data-name="Path 170" d="M425.392,550.974c-14.148,1.332-29.293-1.032-29.293-1.032-1-3.144-14.969-11.8-14.969-11.8C392.584,535.323,425.392,550.974,425.392,550.974Z" transform="translate(-205.303 -303.522)" opacity="0.1"/>
  <path id="Path_171" data-name="Path 171" d="M422.846,643.485c-.516,11.149-13.152,6.824-14.969,5.327a4.672,4.672,0,0,1-.707-.728c4.424,1.631,12.259,2.885,14.809-7.144A20.2,20.2,0,0,1,422.846,643.485Z" transform="translate(-217.902 -353.423)" fill="#444053"/>
  <path id="Path_172" data-name="Path 172" d="M514,658.918s-9.653,2.829-14.969,2.493c-4.646-.289-3.969-4.79-3.722-5.905,4.888-.155,13.3-.614,17.669-1.936h.036C514.159,654.091,514,658.918,514,658.918Z" transform="translate(-260.456 -359.533)" fill="#444053"/>
  <path id="Path_173" data-name="Path 173" d="M422.846,643.485c-.516,11.149-13.152,6.824-14.969,5.327a4.672,4.672,0,0,1-.707-.728c4.424,1.631,12.259,2.885,14.809-7.144A20.2,20.2,0,0,1,422.846,643.485Z" transform="translate(-217.902 -353.423)" opacity="0.1"/>
  <path id="Path_174" data-name="Path 174" d="M514,658.918s-9.653,2.829-14.969,2.493c-4.646-.289-3.969-4.79-3.722-5.905,4.888-.155,13.3-.614,17.669-1.936h.036C514.159,654.091,514,658.918,514,658.918Z" transform="translate(-260.456 -359.533)" opacity="0.1"/>
  <path id="Path_175" data-name="Path 175" d="M540.048,706.431c-5.162,3.495-12.982,1.832-12.982,1.832s-11.815-5.678-15.31-5.678-11.986-3.495-11.986-3.495l.284-2.354,1.383-11.279s12.966-.33,13.483-1.5c0,0,2.333-5.735,3.164-3.613s13.317,17.1,16.476,17.1c1.507,0,4,1.249,5.637,2.932C541.988,702.224,542.732,704.6,540.048,706.431Z" transform="translate(-262.704 -372.261)" fill="#67647e"/>
  <path id="Path_176" data-name="Path 176" d="M483.232,540.75s-10.84,6.824-7.82,8.321S483.232,540.75,483.232,540.75Z" transform="translate(-250.662 -304.949)" opacity="0.1"/>
  <path id="Path_177" data-name="Path 177" d="M493.573,566.22s-9.322,8.853-5.828,9.085S493.573,566.22,493.573,566.22Z" transform="translate(-256.507 -317.271)" opacity="0.1"/>
  <path id="Path_178" data-name="Path 178" d="M515.985,620.72s-4.707,8.92-2.953,10.437S515.985,620.72,515.985,620.72Z" transform="translate(-268.931 -343.64)" opacity="0.1"/>
  <path id="Path_179" data-name="Path 179" d="M406.552,632.655c1.662,1.667-15.816-5.492-11.821-5.828S406.552,632.655,406.552,632.655Z" transform="translate(-211.596 -346.588)" opacity="0.1"/>
  <path id="Path_180" data-name="Path 180" d="M323.627,375.107l-.552-.083c-2.065-.32-9.575-1.5-16.306-2.958-1.641-.356-3.231-.728-4.692-1.11-5.162-1.352-8.615-2.813-6.411-4.006a11.791,11.791,0,0,0,5.27-6.943q.119-.366.217-.712a18.362,18.362,0,0,0,.671-3.83s18.81-6.659,15.145,0c-1.8,3.267-.588,5.931,1.11,7.8a14.623,14.623,0,0,0,4.052,3.02Z" transform="translate(-163.627 -213.873)" fill="#a1616a"/>
  <path id="Path_181" data-name="Path 181" d="M303.013,386.29s6.71,4.826,13.6.831,15.862,35.291,15.862,35.291l9.322,22.965s6.039,5-1.476,7.159-24.183-2.163-28.416,4.16-12.223,7.325-13.065,7.325-3.99-23.8-3.99-23.8L294,405.755Z" transform="translate(-163.148 -230.218)" opacity="0.1"/>
  <path id="Path_182" data-name="Path 182" d="M339.72,449.947c-7.516,2.163-24.188-2.163-28.39,4.16a16.291,16.291,0,0,1-7.165,5.766,18.819,18.819,0,0,1-5.905,1.549c-.108,0-.263-.439-.449-1.192-1.172-4.816-3.541-22.609-3.541-22.609l-.821-34.455,7.908-17.132,1.079-2.343a14.237,14.237,0,0,0,3.427,1.667,12.079,12.079,0,0,0,10.174-.831c2.018-1.172,4.217,1.378,6.318,5.575,5.053,10.1,9.539,29.711,9.539,29.711l9.322,22.965a8.094,8.094,0,0,1,.635.609C343.148,444.79,345.631,448.243,339.72,449.947Z" transform="translate(-162.882 -228.96)" fill="#f3f5f9"/>
  <path id="Path_183" data-name="Path 183" d="M303.894,442.385a43.361,43.361,0,0,1,.222,8.775,102.055,102.055,0,0,1-1.549,12.388,4.128,4.128,0,0,1-.2.754c-4.062-1.781-7.288-3.1-7.288-3.1l2.684-9.678c-1.172-4.816-3.541-22.609-3.541-22.609l-.821-34.455,7.908-17.132c-5.162-1.352-8.615-2.813-6.411-4.006,3.2-1.74,4.744-5.038,5.487-7.655a27.932,27.932,0,0,0,4.728,5.09l.1.088.6,5.807L306,378.44l.382,3.706s-1.832,43.772-3.164,46.27-.666,7.325.516,12.982C303.786,441.719,303.842,442.044,303.894,442.385Z" transform="translate(-162.858 -220.241)" opacity="0.1"/>
  <path id="Path_184" data-name="Path 184" d="M270.6,430.9c1.167,5.678.165,14.969-1.167,22.139s-15.485,2.5-18.139,0-10.489-3.66-10.489-3.66-.33-32.628-2.829-36.788c-1.187-1.972-1.471-8.414-1.44-14.634,0-5.59.3-11,.4-12.837.026-.423.036-.656.036-.656s-10.84-18.309-10.649-19.641,3.329-1.5,3.329-1.5,11.981-9.322,13.978-8.156,7.49-1.832,7.49-1.832,6.963.79,8.4-.552a.733.733,0,0,0,.258-.614c-.165-2.132,7.092-6.679,7.319-6.819-6.117,5.5,3.773,13.978,4.893,14.907l.1.088,1.167,11.3s-1.832,43.772-3.164,46.27S269.434,425.239,270.6,430.9Z" transform="translate(-130.406 -210.41)" fill="#00a779"/>
  <circle id="Ellipse_31" data-name="Ellipse 31" cx="0.831" cy="0.831" r="0.831" transform="translate(138.718 172.105)" fill="#444053"/>
  <path id="Path_185" data-name="Path 185" d="M302.471,361.528l-5.059,4.893L290,354.033a.749.749,0,0,0,.258-.614c-.165-2.132,7.092-6.679,7.314-6.819C291.456,352.123,301.356,360.6,302.471,361.528Z" transform="translate(-161.213 -211.015)" opacity="0.1"/>
  <circle id="Ellipse_32" data-name="Ellipse 32" cx="0.831" cy="0.831" r="0.831" transform="translate(137.056 198.735)" opacity="0.1"/>
  <circle id="Ellipse_33" data-name="Ellipse 33" cx="0.831" cy="0.831" r="0.831" transform="translate(137.056 198.399)" fill="#444053"/>
  <path id="Path_186" data-name="Path 186" d="M303.106,360.238l-5.059,4.893-7.418-12.388a.733.733,0,0,0,.258-.614c-.165-2.132,7.092-6.679,7.319-6.819C292.1,350.828,301.986,359.309,303.106,360.238Z" transform="translate(-161.518 -210.391)" fill="#00a779"/>
  <path id="Path_187" data-name="Path 187" d="M382.193,439.6c-4.16,1.832-31.461-2.994-35.451-4.16s-9.807-10.153-6.994-16.647-1-12.837-1-12.837-5.993-12.812-7.325-15.31a113.947,113.947,0,0,1-4.5-10.984,1.032,1.032,0,0,1,.237-.764c1.084-1.647,5.255-4.563,5.255-4.563,1.177.423,1.321-2.942,1.275-5.415-.026-1.383-.108-2.488-.108-2.488s.552.563,1.456,1.327c.33.279.707.583,1.12.9a17.349,17.349,0,0,0,5.255,2.891c4,1.177,9.653,6.633,9.653,6.633L349.4,403.745s3.83,24.039,7.825,28.7,16,4.491,19.971,4.491S382.193,439.6,382.193,439.6Z" transform="translate(-179.076 -220.609)" opacity="0.1"/>
  <path id="Path_188" data-name="Path 188" d="M382.83,437.683c-4.16,1.827-31.456-3-35.451-4.166s-9.807-10.153-6.989-16.642-1-12.817-1-12.817-5.993-12.817-7.325-15.315-4.1-9.766-4.491-10.984a.96.96,0,0,1,.237-.759c1.079-1.652,5.255-4.568,5.255-4.568,1.177.428,1.321-2.937,1.275-5.41-.026-1.389-.108-2.493-.108-2.493s.552.563,1.45,1.332c.33.274.707.583,1.125.9a17.2,17.2,0,0,0,5.244,2.865c4,1.182,9.653,6.638,9.653,6.638l-1.662,25.561s3.83,24.039,7.82,28.7,16,4.5,19.976,4.5S382.83,437.683,382.83,437.683Z" transform="translate(-179.388 -219.69)" fill="#00a779"/>
  <path id="Path_189" data-name="Path 189" d="M338.1,365.82s-.16.883-.423,2.23c-.893,4.568-3.03,14.551-4.573,14.164-1.1-.279-2.973-2.235-4.424-3.923,1.084-1.652,5.255-4.568,5.255-4.568,1.177.428,1.321-2.937,1.275-5.41l1.347-1.161Z" transform="translate(-179.927 -220.314)" opacity="0.1"/>
  <path id="Path_190" data-name="Path 190" d="M337.455,364.53s-.155.883-.418,2.23c-.9,4.568-3.035,14.551-4.573,14.164-1.1-.279-2.973-2.235-4.424-3.923,1.079-1.652,5.255-4.568,5.255-4.568,1.177.428,1.321-2.937,1.275-5.41l1.342-1.161Z" transform="translate(-179.618 -219.69)" fill="#00a779"/>
  <path id="Path_191" data-name="Path 191" d="M274.923,329.83v16.889l-4.465,9.007h0l-.139.284-11.821-.779-4.542-.3-10.546-.7v-20.2l10.546.3,4.718.134,11.924.335Z" transform="translate(-117.767 -159.578)" fill="#f86d70"/>
  <path id="Path_192" data-name="Path 192" d="M300.275,331.76v15.893l-1.089,2.2h0l-1.12,2.256h0l-2.256,4.553.253-16.889.052-3.407L298.257,334v-.005l.934-1.032Z" transform="translate(-143.119 -160.512)" opacity="0.1"/>
  <path id="Path_193" data-name="Path 193" d="M274.661,320.013v5.895l-.6.965-1.084,1.729-.96,1.528-2.116,3.376-.052-.005-28.225-1.45v-5.817l.067-.077,3.371-3.649,1.223-1.316,2.2-2.39Z" transform="translate(-116.901 -154.242)" fill="#f86d70"/>
  <path id="Path_194" data-name="Path 194" d="M269.9,334.583V340.4l-28.276-1.456v-5.817l.067-.077Z" transform="translate(-116.901 -161.136)" opacity="0.1"/>
  <path id="Path_195" data-name="Path 195" d="M301.164,321.15v5.895l-4.764,7.6v-5.817Z" transform="translate(-143.404 -155.379)" opacity="0.15"/>
  <path id="Path_196" data-name="Path 196" d="M276.2,324.963l-.005,3.964v1.915l-.005,14.98h0l-1.12,2.256.165-15.707.026-2.405v-.005l.041-3.546-27.022-1.667,1.223-1.316Z" transform="translate(-120.123 -156.482)" fill="#464353"/>
  <path id="Path_197" data-name="Path 197" d="M270.468,326.78l-1.894,4.114-.016,2.1-.175,20.766-4.542-.3V330.62l2.426-3.84Z" transform="translate(-127.651 -158.103)" fill="#464353"/>
  <path id="Path_198" data-name="Path 198" d="M300.721,404.562a5.957,5.957,0,0,1-3.386.119,1.338,1.338,0,0,1-.594-.274,1.5,1.5,0,0,1-.366-.728,5.636,5.636,0,0,1-.325-1.745,1.92,1.92,0,0,1,.723-1.549,1.812,1.812,0,0,0,.274-.206,1.11,1.11,0,0,0,.217-.434c.33-.986.97-2.029,2-2.189a3.266,3.266,0,0,1,2.55,1.141l1.605,1.368a2.534,2.534,0,0,1,4.723-.067,8.951,8.951,0,0,1,3.572-2.447,1.115,1.115,0,0,1,.939-.041,1.146,1.146,0,0,1,.377.516,7.741,7.741,0,0,1,.692,3.045.516.516,0,0,1,.619.217,1.367,1.367,0,0,1,.206.671,8.769,8.769,0,0,1,.067,1.1,1.647,1.647,0,0,1-.294,1.1,1.822,1.822,0,0,1-1.394.434.563.563,0,0,1-.145.831,1.616,1.616,0,0,1-.94.186,6.423,6.423,0,0,1-3.613-.743c-.413-.274-.754-.64-1.167-.908a5.63,5.63,0,0,0-3.443-.645C302.559,403.349,301.7,404.227,300.721,404.562Z" transform="translate(-164.14 -235.606)" fill="#464353"/>
  <path id="Path_199" data-name="Path 199" d="M293.522,410.71s-10.422,1.45-11.872,7.743l2.178-.32,1.549,2.746s1.616-6.143,6.38-7.6a51.048,51.048,0,0,1,6.463-1.693s3.314.805,6.3,10.422l1.7-2.343,2.989.645s-2.183-7.516-8.078-9.611Z" transform="translate(-157.173 -242.028)" fill="#464353"/>
  <path id="Path_200" data-name="Path 200" d="M341.551,450.058s-8.326-1.662-10.654-5.327-18.18-6.824-16.249-2.994S330.9,458.089,330.9,458.089l6.194,8.883,8.259-2.1,3.489-6.783Z" transform="translate(-173.059 -256.201)" fill="#a1616a"/>
  <path id="Path_201" data-name="Path 201" d="M328.77,477.89s8.063,2.994,9.291,6.989S328.77,477.89,328.77,477.89Z" transform="translate(-179.971 -274.536)" opacity="0.1"/>
  <path id="Path_202" data-name="Path 202" d="M319.179,486.9s-.733,4.16,9.374,3.825Z" transform="translate(-175.325 -278.895)" opacity="0.1"/>
  <path id="Path_203" data-name="Path 203" d="M206.529,383.4l-3.66-.33s-4,2.994-6.994,2.994-4.826,3.83-4.826,3.83a54.079,54.079,0,0,1-6.659,2.664c-1.667.336-4.491,2-3.66,2.663s-.165,2.163-1.662,3.329-3.83,7.154-1.832,7.985,7.49,2.5,8.987,3.329a4.134,4.134,0,0,0,3.329,0s8.816-11.485,13.312-9.317,10.654,2.163,10.654,2.163l4.831-10.153Z" transform="translate(-106.281 -228.66)" opacity="0.1"/>
  <path id="Path_204" data-name="Path 204" d="M371.106,440.194a4.45,4.45,0,0,1-3.1,2.158,23.522,23.522,0,0,1-9.689-.893s16.766-5.327.619-18.278h4.326l1.445-.547-.661-3.448-.95-31.095,3.495-.831s2.813,20.472,3.489,22.97,1.172,12.151,1.172,12.151a28.035,28.035,0,0,0,1.667,5.993C373.64,429.876,373.47,436.643,371.106,440.194Z" transform="translate(-194.268 -230.687)" fill="#00a779"/>
  <path id="Path_205" data-name="Path 205" d="M369.8,473.35a4.455,4.455,0,0,1-3.1,2.158,23.538,23.538,0,0,1-9.7-.893s16.766-5.327.619-18.278h4.331l1.44-.547C365.775,459.987,369.5,467.456,369.8,473.35Z" transform="translate(-193.629 -263.843)" opacity="0.1"/>
  <path id="Path_206" data-name="Path 206" d="M371.106,473.35a4.45,4.45,0,0,1-3.1,2.158,23.521,23.521,0,0,1-9.689-.893s16.766-5.327.619-18.278h4.326l1.445-.547C367.069,459.987,370.8,467.456,371.106,473.35Z" transform="translate(-194.268 -263.843)" fill="none"/>
  <path id="Path_207" data-name="Path 207" d="M371.106,473.35a4.45,4.45,0,0,1-3.1,2.158,23.521,23.521,0,0,1-9.689-.893s16.766-5.327.619-18.278h4.326l1.445-.547C367.069,459.987,370.8,467.456,371.106,473.35Z" transform="translate(-194.268 -263.843)" fill="#00a779"/>
  <path id="Path_208" data-name="Path 208" d="M323.652,363.246a15.155,15.155,0,0,1-17.142-3.278q.119-.366.217-.712a18.361,18.361,0,0,0,.671-3.83s18.81-6.659,15.145,0C320.746,358.714,321.954,361.378,323.652,363.246Z" transform="translate(-169.201 -213.853)" opacity="0.1"/>
  <path id="Path_209" data-name="Path 209" d="M328.525,331.157v.145a13.321,13.321,0,0,1-.083,1.461c-.052.48-.119.914-.206,1.363a15.155,15.155,0,0,1-29.185,1.956c-.1-.294-.191-.588-.274-.888a15.089,15.089,0,0,1-.547-4.037,8.5,8.5,0,0,1,.041-1.032,15.145,15.145,0,0,1,30.253,1.032Z" transform="translate(-165.195 -196.222)" fill="#a1616a"/>
  <path id="Path_210" data-name="Path 210" d="M328.554,331.287a6.787,6.787,0,0,0-.083,1.461,5.74,5.74,0,0,1-.041.79,2.273,2.273,0,0,1-.165.573c-.614,1.435-2.612,2.364-3.928,1.44A4.264,4.264,0,0,1,323.154,334c-1.4-2.581-3.345-5.59-6.406-5.642a14.228,14.228,0,0,0-3.8.847,3.982,3.982,0,0,1-3.7-.516c-.723-.661-1.063-1.791-2.034-2.023s-1.869.661-2.312,1.549a4.614,4.614,0,0,1-1.7,2.349c-.4.2-.872.253-1.265.465-1.812,1-.981,4.47-2.86,5.033l-.181.041-.093-.929-.516-5.079a15.145,15.145,0,0,1,30.253,1.032Z" transform="translate(-165.224 -196.208)" opacity="0.1"/>
  <path id="Path_211" data-name="Path 211" d="M299.279,297.272c-1.776.754-3.613,1.915-4.031,3.732a14.736,14.736,0,0,0-.083,2.436,19.48,19.48,0,0,1-1.363,4.733c-.5,1.569-.681,3.407.32,4.744.315.418.728.764,1.007,1.2a4.9,4.9,0,0,1,.583,2.2l.821,8.192c2.116-.392,1.172-4.052,3.04-5.074.392-.212.862-.274,1.265-.47.9-.449,1.249-1.476,1.7-2.349s1.327-1.765,2.313-1.549,1.311,1.363,2.034,2.018a4.115,4.115,0,0,0,3.706.516,15.451,15.451,0,0,1,3.794-.852c3.061.052,5.007,3.045,6.406,5.642a4.326,4.326,0,0,0,1.182,1.549c1.487,1.032,3.835-.274,4.093-2.018.139-.976-.165-2.065.4-2.9s1.781-1.032,2.736-1.445c2.431-1.12,3.185-4.155,2.782-6.71-.294-1.832-1.032-3.727-.423-5.492.206-.609.563-1.167.754-1.776a4.84,4.84,0,0,0-1.714-4.821,14.165,14.165,0,0,0-4.935-2.483c-4.542-1.518-9.291-2.989-14.138-3.3-2.116-.134-4.888-.795-6.566.516A21.746,21.746,0,0,1,299.279,297.272Z" transform="translate(-162.858 -184.945)" fill="#464353"/>
  <circle id="Ellipse_34" data-name="Ellipse 34" cx="0.831" cy="0.831" r="0.831" transform="translate(139.549 158.953)" opacity="0.1"/>
  <circle id="Ellipse_35" data-name="Ellipse 35" cx="0.831" cy="0.831" r="0.831" transform="translate(139.549 158.622)" fill="#444053"/>
  <circle id="Ellipse_36" data-name="Ellipse 36" cx="0.831" cy="0.831" r="0.831" transform="translate(134.227 211.216)" opacity="0.1"/>
  <circle id="Ellipse_37" data-name="Ellipse 37" cx="0.831" cy="0.831" r="0.831" transform="translate(134.227 210.885)" fill="#444053"/>
  <circle id="Ellipse_38" data-name="Ellipse 38" cx="0.831" cy="0.831" r="0.831" transform="translate(137.056 225.034)" opacity="0.1"/>
  <circle id="Ellipse_39" data-name="Ellipse 39" cx="0.831" cy="0.831" r="0.831" transform="translate(137.056 224.698)" fill="#444053"/>
  <path id="Path_212" data-name="Path 212" d="M362.287,419s1.832,12.43,0,14.6S362.287,419,362.287,419Z" transform="translate(-195.793 -246.043)" opacity="0.1"/>
  <path id="Path_213" data-name="Path 213" d="M256.152,463.68s-3.5,7.531,0,14.752,5.678,10.153,4.491,14.763S256.152,463.68,256.152,463.68Z" transform="translate(-144.084 -267.661)" opacity="0.1"/>
  <path id="Path_214" data-name="Path 214" d="M540.048,722.234c-5.162,3.495-12.982,1.832-12.982,1.832s-11.815-5.678-15.31-5.678-11.986-3.495-11.986-3.495l.284-2.354c3.453.666,11.294,2.245,12.2,3.02,1.167,1,15.485,5.828,15.485,5.828s9.745-1.218,12.461-5.224C541.988,718.027,542.732,720.407,540.048,722.234Z" transform="translate(-262.704 -388.064)" opacity="0.1"/>
  <g id="Group_92" data-name="Group 92" transform="translate(130.526 116.621)" opacity="0.1">
    <path id="Path_215" data-name="Path 215" d="M296.82,310.407v.077A.4.4,0,0,0,296.82,310.407Z" transform="translate(-295.039 -309.86)"/>
    <path id="Path_216" data-name="Path 216" d="M329.187,332.312c-.955.444-2.158.6-2.736,1.445s-.263,1.92-.4,2.9c-.258,1.745-2.607,3.061-4.093,2.018a4.284,4.284,0,0,1-1.182-1.549c-1.4-2.581-3.345-5.59-6.406-5.642a14.994,14.994,0,0,0-3.794.852,3.98,3.98,0,0,1-3.706-.516c-.723-.656-1.063-1.786-2.034-2.018s-1.863.656-2.312,1.549-.8,1.9-1.7,2.349c-.4.2-.872.258-1.265.47-1.863,1.032-.924,4.682-3.04,5.074l-.821-8.192a4.9,4.9,0,0,0-.583-2.2c-.279-.439-.692-.785-1.007-1.2a3.7,3.7,0,0,1-.681-1.76,4.269,4.269,0,0,0,.681,3.1c.315.418.728.764,1.007,1.2a4.9,4.9,0,0,1,.583,2.2l.821,8.192c2.116-.392,1.177-4.052,3.04-5.074.392-.212.862-.274,1.265-.47.9-.449,1.254-1.476,1.7-2.349s1.327-1.765,2.313-1.549,1.311,1.363,2.034,2.018a4.115,4.115,0,0,0,3.706.516,15.451,15.451,0,0,1,3.794-.852c3.061.052,5.007,3.045,6.406,5.642a4.326,4.326,0,0,0,1.182,1.549c1.487,1.032,3.835-.274,4.093-2.018.139-.976-.165-2.065.4-2.9s1.781-1.032,2.736-1.445c2.225-1.032,3.04-3.649,2.854-6.039A5.415,5.415,0,0,1,329.187,332.312Z" transform="translate(-293.369 -317.611)"/>
    <path id="Path_217" data-name="Path 217" d="M367.877,310.912c-.191.609-.547,1.167-.754,1.776a5.162,5.162,0,0,0-.17,2.214,4.182,4.182,0,0,1,.191-.857c.206-.609.563-1.167.754-1.776a3.753,3.753,0,0,0,.1-1.74,3.919,3.919,0,0,1-.119.382Z" transform="translate(-328.946 -310.184)"/>
  </g>
  <path id="Path_218" data-name="Path 218" d="M260.532,439.037c-3.83-.836-12.817-3.489-12.817-3.489l-1.605-.32c0-5.59.3-11,.4-12.837h.036s7.66,2.493,9.487,3.825,7.49,1,7.49,1a25.758,25.758,0,0,1,16.146,8.656C287,444.013,264.362,439.878,260.532,439.037Z" transform="translate(-139.978 -247.684)" opacity="0.1"/>
  <path id="Path_219" data-name="Path 219" d="M200.338,421.542a2.22,2.22,0,0,0-.516,3.732c2.023,1.678,4.986,3.691,7.81,3.975,4.718.475,16.064,2.751,17.194,2.978l.175.041c.934.274,9.121,2.674,12.729,3.464,3.83.841,26.465,5,19.14-3.154a25.883,25.883,0,0,0-16-8.646,2.816,2.816,0,0,0-.294,0c-.857.041-5.678.206-7.361-1.032a15.808,15.808,0,0,0-2.751-1.368,52.653,52.653,0,0,0-11.253-3.247l-7.81-1.316a2.261,2.261,0,0,0-1.316.165Z" transform="translate(-117.196 -245.044)" fill="#a1616a"/>
  <path id="Path_220" data-name="Path 220" d="M205.239,383.4l-3.66-.33s-4,2.994-6.994,2.994-4.826,3.83-4.826,3.83a54.081,54.081,0,0,1-6.659,2.664c-1.667.336-4.491,2-3.66,2.663s-.165,2.163-1.662,3.329-3.83,7.154-1.832,7.985,7.49,2.5,8.987,3.329a4.134,4.134,0,0,0,3.329,0s8.816-11.485,13.312-9.317,10.675,2.163,10.675,2.163l4.831-10.153Z" transform="translate(-105.657 -228.66)" fill="#00a779"/>
  <path id="Path_221" data-name="Path 221" d="M242.844,502v43.209h69.137v7.227H243.567v30.971H236.34V502Z" transform="translate(-135.251 -286.201)" fill="#464353"/>
  <path id="Path_222" data-name="Path 222" d="M187.55,400.18h27.358l2.88,48.975H274.4a19.615,19.615,0,0,1,13.307,5.033,17.736,17.736,0,0,1,5.709,11.532v73.458h-7.2L286.93,468a9.568,9.568,0,0,0-.227-2.2,11.636,11.636,0,0,0-5.017-7.469,9.353,9.353,0,0,0-4.8-1.249H212.76l-3.613-51.133h-21.6Z" transform="translate(-111.646 -236.938)" fill="#464353"/>
  <path id="Path_223" data-name="Path 223" d="M169.42,592.458c0,32.22,18.7,58.328,41.769,58.328s41.769-26.119,41.769-58.328-18.7-58.328-41.769-58.328S169.42,560.244,169.42,592.458Zm2.88-.779c0-28.2,16.445-51.071,36.726-51.071s36.731,22.867,36.731,51.071-16.445,51.071-36.731,51.071S172.3,619.883,172.3,591.679Z" transform="translate(-102.874 -301.746)" fill="#35323e"/>
  <ellipse id="Ellipse_40" data-name="Ellipse 40" cx="6.483" cy="9.725" rx="6.483" ry="9.725" transform="translate(97.512 282.789)" fill="#35323e"/>
  <ellipse id="Ellipse_41" data-name="Ellipse 41" cx="1.44" cy="2.88" rx="1.44" ry="2.88" transform="translate(101.115 289.995)" fill="#464353"/>
  <path id="Path_224" data-name="Path 224" d="M389.86,622.706v7.918c2.261-1.409,4.744-1.032,6.937-.083a13.08,13.08,0,0,1,7.19,8.465c1.745,6.039,5.162,17.922,8.2,29.092,4.32,15.816,12.244,12.2,12.244,12.2l55.092,3.964,23.409-11.872v-7.227H443.873s-13.684,5.043-19.445,7.227-3.613-2.163-11.206-29.335S389.86,622.706,389.86,622.706Z" transform="translate(-209.527 -344.232)" fill="#464353"/>
  <path id="Path_225" data-name="Path 225" d="M416.33,643l55.092,3.959,23.409-11.882-57.616-.718Z" transform="translate(-201.429 -306.916)" opacity="0.1"/>
  <ellipse id="Ellipse_42" data-name="Ellipse 42" cx="30.697" cy="5.905" rx="30.697" ry="5.905" transform="translate(498.429 321.926)" fill="#00a779"/>
  <ellipse id="Ellipse_43" data-name="Ellipse 43" cx="3.572" cy="4.677" rx="3.572" ry="4.677" transform="translate(525.043 320.646)" fill="#464353"/>
  <ellipse id="Ellipse_44" data-name="Ellipse 44" cx="3.572" cy="4.677" rx="3.572" ry="4.677" transform="translate(525.043 314.927)" fill="#464353"/>
  <ellipse id="Ellipse_45" data-name="Ellipse 45" cx="3.572" cy="4.677" rx="3.572" ry="4.677" transform="translate(525.043 309.213)" fill="#464353"/>
  <ellipse id="Ellipse_46" data-name="Ellipse 46" cx="3.572" cy="4.677" rx="3.572" ry="4.677" transform="translate(525.043 303.493)" fill="#464353"/>
  <ellipse id="Ellipse_47" data-name="Ellipse 47" cx="3.572" cy="4.677" rx="3.572" ry="4.677" transform="translate(525.043 297.774)" fill="#464353"/>
  <ellipse id="Ellipse_48" data-name="Ellipse 48" cx="3.572" cy="4.677" rx="3.572" ry="4.677" transform="translate(525.043 292.055)" fill="#464353"/>
  <ellipse id="Ellipse_49" data-name="Ellipse 49" cx="3.572" cy="4.677" rx="3.572" ry="4.677" transform="translate(525.043 286.335)" fill="#464353"/>
  <path id="Path_226" data-name="Path 226" d="M1061.839,545.928a17.7,17.7,0,0,0,1.332-1.962l-9.394-1.549,10.158.072a17.162,17.162,0,0,0,.325-13.56L1050.637,536l12.564-9.24a17.122,17.122,0,1,0-28.276,19.161,17.329,17.329,0,0,0-1.951,3.123l12.192,6.333-13.013-4.351a17.131,17.131,0,0,0,2.756,16.074,17.117,17.117,0,1,0,26.914,0,17.137,17.137,0,0,0,0-21.163Z" transform="translate(-519.844 -294.042)" fill="#00a779"/>
  <path id="Path_227" data-name="Path 227" d="M1031.28,592.174a17.034,17.034,0,0,0,3.66,10.587,17.117,17.117,0,1,0,26.914,0C1064.171,599.849,1031.28,590.254,1031.28,592.174Z" transform="translate(-519.859 -329.707)" opacity="0.1"/>
  <ellipse id="Ellipse_50" data-name="Ellipse 50" cx="21.122" cy="4.062" rx="21.122" ry="4.062" transform="translate(26.924 325.039)" fill="#00a779"/>
  <ellipse id="Ellipse_51" data-name="Ellipse 51" cx="2.457" cy="3.221" rx="2.457" ry="3.221" transform="translate(45.238 324.156)" fill="#464353"/>
  <ellipse id="Ellipse_52" data-name="Ellipse 52" cx="2.457" cy="3.221" rx="2.457" ry="3.221" transform="translate(45.238 320.223)" fill="#464353"/>
  <ellipse id="Ellipse_53" data-name="Ellipse 53" cx="2.457" cy="3.221" rx="2.457" ry="3.221" transform="translate(45.238 316.289)" fill="#464353"/>
  <ellipse id="Ellipse_54" data-name="Ellipse 54" cx="2.457" cy="3.221" rx="2.457" ry="3.221" transform="translate(45.238 312.351)" fill="#464353"/>
  <ellipse id="Ellipse_55" data-name="Ellipse 55" cx="2.457" cy="3.221" rx="2.457" ry="3.221" transform="translate(45.238 308.418)" fill="#464353"/>
  <ellipse id="Ellipse_56" data-name="Ellipse 56" cx="2.457" cy="3.221" rx="2.457" ry="3.221" transform="translate(45.238 304.484)" fill="#464353"/>
  <ellipse id="Ellipse_57" data-name="Ellipse 57" cx="2.457" cy="3.221" rx="2.457" ry="3.221" transform="translate(45.238 300.551)" fill="#464353"/>
  <path id="Path_228" data-name="Path 228" d="M131.007,602.423a12.127,12.127,0,0,0,.919-1.347l-6.463-1.032,6.989.052a11.774,11.774,0,0,0,.222-9.333l-9.374,4.862,8.646-6.354a11.779,11.779,0,1,0-19.455,13.178,11.983,11.983,0,0,0-1.342,2.147l8.388,4.362-8.945-3a11.872,11.872,0,0,0-.619,3.778,11.717,11.717,0,0,0,2.519,7.283,11.784,11.784,0,1,0,18.515,0,11.769,11.769,0,0,0,0-14.567Z" transform="translate(-74.108 -325.574)" fill="#00a779"/>
  <path id="Path_229" data-name="Path 229" d="M109.993,634.218a11.717,11.717,0,0,0,2.519,7.283,11.784,11.784,0,1,0,18.515,0C132.6,639.5,109.993,632.9,109.993,634.218Z" transform="translate(-74.118 -350.086)" opacity="0.1"/>
  <ellipse id="Ellipse_58" data-name="Ellipse 58" cx="15.444" cy="2.968" rx="15.444" ry="2.968" transform="translate(298.435 313.481)" fill="#00a779"/>
  <ellipse id="Ellipse_59" data-name="Ellipse 59" cx="1.796" cy="2.354" rx="1.796" ry="2.354" transform="translate(311.824 312.831)" fill="#464353"/>
  <ellipse id="Ellipse_60" data-name="Ellipse 60" cx="1.796" cy="2.354" rx="1.796" ry="2.354" transform="translate(311.824 309.956)" fill="#464353"/>
  <ellipse id="Ellipse_61" data-name="Ellipse 61" cx="1.796" cy="2.354" rx="1.796" ry="2.354" transform="translate(311.824 307.081)" fill="#464353"/>
  <ellipse id="Ellipse_62" data-name="Ellipse 62" cx="1.796" cy="2.354" rx="1.796" ry="2.354" transform="translate(311.824 304.206)" fill="#464353"/>
  <ellipse id="Ellipse_63" data-name="Ellipse 63" cx="1.796" cy="2.354" rx="1.796" ry="2.354" transform="translate(311.824 301.325)" fill="#464353"/>
  <ellipse id="Ellipse_64" data-name="Ellipse 64" cx="1.796" cy="2.354" rx="1.796" ry="2.354" transform="translate(311.824 298.45)" fill="#464353"/>
  <ellipse id="Ellipse_65" data-name="Ellipse 65" cx="1.796" cy="2.354" rx="1.796" ry="2.354" transform="translate(311.824 295.575)" fill="#464353"/>
  <path id="Path_230" data-name="Path 230" d="M646.707,609.965a8.443,8.443,0,0,0,.671-.981l-4.723-.779,5.11.041a8.667,8.667,0,0,0,.785-3.613,8.562,8.562,0,0,0-.625-3.221l-6.855,3.556,6.323-4.646a8.61,8.61,0,1,0-14.221,9.642,8.688,8.688,0,0,0-.986,1.549l6.132,3.185-6.535-2.194a8.62,8.62,0,0,0,1.389,8.089,8.61,8.61,0,1,0,13.534,0,8.62,8.62,0,0,0,0-10.654Z" transform="translate(-326.355 -331.708)" fill="#00a779"/>
  <path id="Path_231" data-name="Path 231" d="M631.33,633.171a8.574,8.574,0,0,0,1.843,5.327,8.61,8.61,0,1,0,13.534,0C647.863,637.032,631.33,632.206,631.33,633.171Z" transform="translate(-326.355 -349.603)" opacity="0.1"/>
  <circle id="Ellipse_66" data-name="Ellipse 66" cx="7.882" cy="7.882" r="7.882" transform="translate(233.654 40.479)" fill="#00a779" opacity="0.1"/>
  <circle id="Ellipse_67" data-name="Ellipse 67" cx="13.214" cy="13.214" r="13.214" transform="translate(256.521 0)" fill="#00a779" opacity="0.1"/>
  <circle id="Ellipse_68" data-name="Ellipse 68" cx="13.214" cy="13.214" r="13.214" transform="translate(239.033 64.12)" fill="#00a779" opacity="0.1"/>
  <circle id="Ellipse_69" data-name="Ellipse 69" cx="7.882" cy="7.882" r="7.882" transform="translate(489.421 123.584)" fill="#00a779" opacity="0.1"/>
  <circle id="Ellipse_70" data-name="Ellipse 70" cx="13.214" cy="13.214" r="13.214" transform="translate(455.885 83.105)" fill="#00a779" opacity="0.1"/>
  <circle id="Ellipse_71" data-name="Ellipse 71" cx="13.214" cy="13.214" r="13.214" transform="translate(473.379 147.225)" fill="#00a779" opacity="0.1"/>
  <circle id="Ellipse_72" data-name="Ellipse 72" cx="4.465" cy="4.465" r="4.465" transform="translate(47.292 141.279)" fill="#00a779" opacity="0.1"/>
  <circle id="Ellipse_73" data-name="Ellipse 73" cx="7.485" cy="7.485" r="7.485" transform="translate(63.413 121.359)" fill="#00a779" opacity="0.1"/>
  <circle id="Ellipse_74" data-name="Ellipse 74" cx="7.485" cy="7.485" r="7.485" transform="translate(27.59 132.968)" fill="#00a779" opacity="0.1"/>
  <circle id="Ellipse_75" data-name="Ellipse 75" cx="18.712" cy="18.712" r="18.712" transform="translate(92.825 42.879)" fill="#00a779" opacity="0.1"/>
  <circle id="Ellipse_76" data-name="Ellipse 76" cx="10.798" cy="10.798" r="10.798" transform="translate(208.619 145.769)" fill="#00a779" opacity="0.1"/>
  <circle id="Ellipse_77" data-name="Ellipse 77" cx="10.798" cy="10.798" r="10.798" transform="translate(288.111 197.387)" fill="#00a779" opacity="0.1"/>
</svg>
