<?xml version="1.0" standalone="no"?>
<!DOCTYPE svg PUBLIC "-//W3C//DTD SVG 20010904//EN"
 "http://www.w3.org/TR/2001/REC-SVG-20010904/DTD/svg10.dtd">
<svg version="1.0" xmlns="http://www.w3.org/2000/svg"
 width="510.000000pt" height="510.000000pt" viewBox="0 0 510.000000 510.000000"
 preserveAspectRatio="xMidYMid meet">
<metadata>
Created by potrace 1.15, written by Peter Selinger 2001-2017
</metadata>
<g transform="translate(0.000000,510.000000) scale(0.100000,-0.100000)"
fill="#000000" stroke="none">
<path d="M2170 3461 c-251 -54 -434 -182 -589 -414 -141 -209 -181 -522 -99
-777 62 -193 191 -375 344 -480 158 -109 307 -158 504 -167 203 -8 378 39 544
147 88 58 106 81 106 138 0 37 -6 50 -34 78 -49 49 -104 48 -177 -2 -126 -87
-254 -127 -404 -127 -315 0 -577 198 -675 508 -18 56 -23 93 -22 185 0 207 62
352 212 501 70 70 104 95 171 128 238 115 493 97 708 -48 49 -33 68 -41 106
-41 40 0 52 5 81 34 27 27 34 42 34 73 0 52 -19 77 -106 133 -203 132 -466
181 -704 131z"/>
<path d="M3344 3175 c-17 -9 -40 -32 -50 -50 -21 -39 -17 -60 33 -180 109
-261 103 -568 -18 -832 -40 -88 -37 -131 14 -176 43 -37 118 -34 155 6 25 26
76 136 103 219 69 218 77 489 19 703 -40 148 -89 263 -128 298 -28 26 -90 31
-128 12z"/>
<path d="M2215 3124 c-209 -51 -380 -226 -431 -440 -33 -139 -6 -309 71 -440
70 -121 222 -231 370 -269 191 -48 412 13 555 154 37 36 80 88 95 115 70 121
105 298 71 363 -31 61 -38 63 -281 63 -203 0 -223 -2 -253 -20 -46 -28 -68
-82 -53 -131 21 -70 44 -79 208 -79 l144 0 -27 -51 c-39 -71 -130 -153 -196
-175 -256 -85 -517 131 -476 393 18 115 91 216 196 269 51 26 67 29 157 29 93
0 105 -2 168 -34 80 -39 123 -38 168 5 36 35 45 80 26 127 -13 29 -29 43 -86
72 -39 19 -99 42 -133 50 -79 18 -214 18 -293 -1z"/>
<path d="M3039 2987 c-31 -27 -49 -58 -49 -88 0 -12 15 -63 32 -113 31 -87 33
-98 33 -236 0 -135 -2 -150 -29 -220 -15 -41 -30 -94 -33 -117 -4 -36 -1 -46
29 -79 30 -32 40 -37 79 -37 56 0 92 23 114 71 9 20 20 44 24 53 5 8 19 55 32
105 19 72 23 115 23 224 0 149 -21 260 -74 376 -22 49 -34 63 -60 73 -51 17
-92 13 -121 -12z"/>
</g>
</svg>
